<?xml version="1.0" encoding="iso-8859-1"?>
<!-- Generator: Adobe Illustrator 13.0.0, SVG Export Plug-In . SVG Version: 6.00 Build 14948)  -->
<!DOCTYPE svg PUBLIC "-//W3C//DTD SVG 1.1//EN" "http://www.w3.org/Graphics/SVG/1.1/DTD/svg11.dtd">
<svg version="1.1" id="Layer_1" xmlns="http://www.w3.org/2000/svg" xmlns:xlink="http://www.w3.org/1999/xlink" x="0px" y="0px"
	 width="300px" height="190px" viewBox="0 0 300 190" style="enable-background:new 0 0 300 190;" xml:space="preserve">
<path style="fill:#D5D6D8;" d="M262.271,173.164l0.045-0.003c17.429-0.654,31.322-15.588,31.322-31.179V46.891
	c0-16.069-15.57-30.167-32.123-30.797c-0.089-0.011-2.306-0.085-3.209-0.085H137.858l-13.48-13.503L77.891,2.552l-48.614,60.6
	c-4.546,5.886-14.005,20.812-14.005,20.812c-3.096,5.513-25.849,45.657,9.192,79.229c33.489,32.078,81.619,12.146,84.659,9.955
	L262.271,173.164"/>
<path style="fill:#00539B;" d="M260.277,23.411H134.659L121.215,9.968L81.213,9.965L34.977,68.013
	C24.081,81.78,16.034,94.64,13.563,110.975c-1.779,11.739-0.352,21.813,3.727,29.911c0.158,0.392,0.255,0.623,0.255,0.623
	c26.185,48.046,81.321,29.533,90.251,24.15l0.059-0.033h152.797c14.127-0.197,25.519-11.375,25.519-25.554V49.305
	C286.171,35.006,274.575,23.411,260.277,23.411"/>
<g>
	<defs>
		<path id="SVGID_1_" d="M260.354,23.411H134.738L121.294,9.965L81.29,9.963l-46.235,58.05C24.161,81.78,16.113,94.64,13.64,110.975
			c-1.776,11.737-0.348,21.813,3.728,29.911c0.16,0.392,0.257,0.623,0.257,0.623c26.182,48.043,81.321,29.533,90.248,24.146
			l0.062-0.028h152.797c14.125-0.199,25.517-11.375,25.517-25.554V49.305C286.248,35.006,274.652,23.411,260.354,23.411"/>
	</defs>
	<clipPath id="SVGID_2_">
		<use xlink:href="#SVGID_1_"  style="overflow:visible;"/>
	</clipPath>
	<path style="clip-path:url(#SVGID_2_);fill:#00539B;" d="M282.102,99.001c0,48.563-41.266,87.933-92.168,87.933
		s-92.168-39.369-92.168-87.933c0-48.563,41.266-87.933,92.168-87.933S282.102,50.438,282.102,99.001"/>
	<path style="clip-path:url(#SVGID_2_);fill:#00539B;" d="M281.758,98.934c0,48.42-41.14,87.672-91.896,87.672
		c-50.75,0-91.891-39.252-91.891-87.672c0-48.42,41.143-87.673,91.891-87.673C240.618,11.26,281.758,50.513,281.758,98.934"/>
	<path style="clip-path:url(#SVGID_2_);fill:#00539B;" d="M281.417,98.861c0,48.277-41.019,87.412-91.619,87.412
		c-50.604,0-91.624-39.135-91.624-87.412c0-48.276,41.02-87.411,91.624-87.411C240.398,11.451,281.417,50.585,281.417,98.861"/>
	<path style="clip-path:url(#SVGID_2_);fill:#00539C;" d="M281.079,98.795c0,48.133-40.897,87.15-91.349,87.15
		c-50.454,0-91.352-39.019-91.352-87.15c0-48.134,40.897-87.154,91.352-87.154C240.182,11.641,281.079,50.661,281.079,98.795"/>
	<path style="clip-path:url(#SVGID_2_);fill:#00539C;" d="M280.741,98.725c0,47.991-40.779,86.895-91.079,86.895
		c-50.303,0-91.079-38.902-91.079-86.895c0-47.99,40.775-86.894,91.079-86.894C239.962,11.831,280.741,50.734,280.741,98.725"/>
	<path style="clip-path:url(#SVGID_2_);fill:#00549C;" d="M280.398,98.655c0,47.849-40.653,86.632-90.805,86.632
		c-50.152,0-90.807-38.783-90.807-86.632c0-47.846,40.655-86.632,90.807-86.632C239.745,12.023,280.398,50.81,280.398,98.655"/>
	<path style="clip-path:url(#SVGID_2_);fill:#00549C;" d="M280.061,98.587c0,47.702-40.535,86.373-90.535,86.373
		c-50,0-90.531-38.671-90.531-86.373c0-47.703,40.532-86.374,90.531-86.374C239.525,12.213,280.061,50.884,280.061,98.587"/>
	<path style="clip-path:url(#SVGID_2_);fill:#00549C;" d="M279.716,98.52c0,47.559-40.407,86.109-90.258,86.109
		c-49.851,0-90.262-38.552-90.262-86.109c0-47.561,40.411-86.117,90.262-86.117C239.309,12.403,279.716,50.959,279.716,98.52"/>
	<path style="clip-path:url(#SVGID_2_);fill:#00549C;" d="M279.378,98.448c0,47.413-40.286,85.854-89.987,85.854
		c-49.699,0-89.99-38.438-89.99-85.854s40.291-85.853,89.99-85.853C239.092,12.595,279.378,51.034,279.378,98.448"/>
	<path style="clip-path:url(#SVGID_2_);fill:#00549C;" d="M279.039,98.381c0,47.27-40.168,85.594-89.715,85.594
		c-49.551,0-89.718-38.324-89.718-85.594c0-47.275,40.167-85.596,89.718-85.596C238.871,12.785,279.039,51.106,279.039,98.381"/>
	<path style="clip-path:url(#SVGID_2_);fill:#00559C;" d="M278.699,98.311c0,47.129-40.049,85.332-89.444,85.332
		c-49.397,0-89.445-38.203-89.445-85.332c0-47.128,40.048-85.334,89.445-85.334C238.65,12.975,278.699,51.181,278.699,98.311"/>
	<path style="clip-path:url(#SVGID_2_);fill:#00559D;" d="M278.359,98.24c0,46.988-39.926,85.074-89.174,85.074
		c-49.249,0-89.169-38.086-89.169-85.074c0-46.985,39.921-85.075,89.169-85.075C238.436,13.166,278.359,51.255,278.359,98.24"/>
	<path style="clip-path:url(#SVGID_2_);fill:#00559D;" d="M278.02,98.173c0,46.841-39.802,84.813-88.899,84.813
		c-49.097,0-88.899-37.973-88.899-84.813c0-46.843,39.802-84.815,88.899-84.815C238.218,13.357,278.02,51.33,278.02,98.173"/>
	<path style="clip-path:url(#SVGID_2_);fill:#00559D;" d="M277.678,98.104c0,46.696-39.678,84.557-88.627,84.557
		c-48.947,0-88.628-37.859-88.628-84.557c0-46.698,39.681-84.556,88.628-84.556C238,13.548,277.678,51.405,277.678,98.104"/>
	<path style="clip-path:url(#SVGID_2_);fill:#00559D;" d="M277.338,98.034c0,46.554-39.557,84.294-88.354,84.294
		c-48.795,0-88.354-37.74-88.354-84.294c0-46.555,39.559-84.296,88.354-84.296C237.781,13.738,277.338,51.479,277.338,98.034"/>
	<path style="clip-path:url(#SVGID_2_);fill:#00569E;" d="M277,97.965c0,46.41-39.438,84.036-88.083,84.036
		c-48.648,0-88.084-37.626-88.084-84.036c0-46.413,39.436-84.037,88.084-84.037C237.563,13.928,277,51.552,277,97.965"/>
	<path style="clip-path:url(#SVGID_2_);fill:#00569E;" d="M276.657,97.896c0,46.265-39.312,83.774-87.81,83.774
		c-48.496,0-87.81-37.511-87.81-83.774c0-46.269,39.314-83.775,87.81-83.775C237.348,14.121,276.657,51.628,276.657,97.896"/>
	<path style="clip-path:url(#SVGID_2_);fill:#00569E;" d="M276.316,97.826c0,46.125-39.189,83.517-87.535,83.517
		c-48.347,0-87.539-37.392-87.539-83.517s39.191-83.515,87.539-83.515C237.127,14.311,276.316,51.702,276.316,97.826"/>
	<path style="clip-path:url(#SVGID_2_);fill:#00569E;" d="M275.977,97.759c0,45.98-39.066,83.255-87.263,83.255
		c-48.196,0-87.268-37.273-87.268-83.255c0-45.983,39.072-83.257,87.268-83.257C236.909,14.501,275.977,51.775,275.977,97.759"/>
	<path style="clip-path:url(#SVGID_2_);fill:#00569E;" d="M275.637,97.688c0,45.838-38.945,82.998-86.992,82.998
		c-48.045,0-86.993-37.16-86.993-82.998c0-45.837,38.947-82.997,86.993-82.997C236.689,14.691,275.637,51.851,275.637,97.688"/>
	<path style="clip-path:url(#SVGID_2_);fill:#00579E;" d="M275.298,97.618c0,45.694-38.825,82.735-86.723,82.735
		c-47.895,0-86.719-37.041-86.719-82.735c0-45.693,38.825-82.734,86.719-82.734C236.473,14.884,275.298,51.925,275.298,97.618"/>
	<path style="clip-path:url(#SVGID_2_);fill:#00579F;" d="M274.958,97.55c0,45.552-38.705,82.478-86.446,82.478
		c-47.747,0-86.452-36.926-86.452-82.478c0-45.55,38.705-82.476,86.452-82.476C236.253,15.074,274.958,52,274.958,97.55"/>
	<path style="clip-path:url(#SVGID_2_);fill:#00579F;" d="M274.615,97.48c0,45.406-38.579,82.216-86.174,82.216
		c-47.593,0-86.176-36.81-86.176-82.216s38.583-82.217,86.176-82.217C236.036,15.264,274.615,52.075,274.615,97.48"/>
	<path style="clip-path:url(#SVGID_2_);fill:#00579F;" d="M274.277,97.412c0,45.264-38.461,81.957-85.903,81.957
		c-47.445,0-85.905-36.693-85.905-81.957c0-45.266,38.46-81.958,85.905-81.958C235.816,15.454,274.277,52.146,274.277,97.412"/>
	<path style="clip-path:url(#SVGID_2_);fill:#00589F;" d="M273.939,97.342c0,45.122-38.34,81.7-85.637,81.7
		c-47.291,0-85.629-36.578-85.629-81.7c0-45.12,38.338-81.696,85.629-81.696C235.6,15.646,273.939,52.222,273.939,97.342"/>
	<path style="clip-path:url(#SVGID_2_);fill:#00589F;" d="M273.6,97.273c0,44.976-38.22,81.437-85.361,81.437
		c-47.143,0-85.359-36.461-85.359-81.437c0-44.979,38.216-81.438,85.359-81.438C235.38,15.836,273.6,52.296,273.6,97.273"/>
	<path style="clip-path:url(#SVGID_2_);fill:#00589F;" d="M273.256,97.204c0,44.833-38.094,81.175-85.085,81.175
		c-46.992,0-85.088-36.342-85.088-81.175s38.096-81.178,85.088-81.178C235.162,16.026,273.256,52.371,273.256,97.204"/>
	<path style="clip-path:url(#SVGID_2_);fill:#00589F;" d="M272.918,97.137c0,44.688-37.973,80.918-84.814,80.918
		c-46.843,0-84.814-36.23-84.814-80.918c0-44.689,37.972-80.92,84.814-80.92C234.945,16.217,272.918,52.446,272.918,97.137"/>
	<path style="clip-path:url(#SVGID_2_);fill:#00589F;" d="M272.575,97.066c0,44.543-37.851,80.658-84.54,80.658
		c-46.691,0-84.544-36.115-84.544-80.658c0-44.546,37.853-80.658,84.544-80.658C234.727,16.408,272.575,52.52,272.575,97.066"/>
	<path style="clip-path:url(#SVGID_2_);fill:#0059A0;" d="M272.236,96.999c0,44.399-37.729,80.396-84.271,80.396
		s-84.269-35.996-84.269-80.396c0-44.404,37.727-80.4,84.269-80.4S272.236,52.595,272.236,96.999"/>
	<path style="clip-path:url(#SVGID_2_);fill:#0059A0;" d="M271.896,96.928c0,44.26-37.605,80.139-83.998,80.139
		c-46.39,0-83.998-35.879-83.998-80.139c0-44.261,37.608-80.139,83.998-80.139C234.291,16.789,271.896,52.667,271.896,96.928"/>
	<path style="clip-path:url(#SVGID_2_);fill:#0059A0;" d="M271.557,96.857c0,44.117-37.481,79.879-83.726,79.879
		c-46.24,0-83.727-35.762-83.727-79.879c0-44.115,37.486-79.879,83.727-79.879C234.074,16.979,271.557,52.742,271.557,96.857"/>
	<path style="clip-path:url(#SVGID_2_);fill:#0059A1;" d="M271.217,96.79c0,43.972-37.361,79.617-83.453,79.617
		c-46.09,0-83.452-35.646-83.452-79.617c0-43.974,37.362-79.619,83.452-79.619C233.855,17.171,271.217,52.816,271.217,96.79"/>
	<path style="clip-path:url(#SVGID_2_);fill:#0059A1;" d="M270.876,96.72c0,43.83-37.241,79.358-83.178,79.358
		c-45.942,0-83.184-35.528-83.184-79.358c0-43.828,37.241-79.359,83.184-79.359C233.635,17.361,270.876,52.892,270.876,96.72"/>
	<path style="clip-path:url(#SVGID_2_);fill:#005AA1;" d="M270.536,96.65c0,43.688-37.119,79.099-82.908,79.099
		c-45.788,0-82.91-35.411-82.91-79.099c0-43.685,37.122-79.101,82.91-79.101C233.417,17.551,270.536,52.967,270.536,96.65"/>
	<path style="clip-path:url(#SVGID_2_);fill:#005AA1;" d="M270.195,96.582c0,43.544-36.994,78.84-82.637,78.84
		c-45.638,0-82.635-35.296-82.635-78.84c0-43.542,36.997-78.838,82.635-78.838C233.201,17.744,270.195,53.041,270.195,96.582"/>
	<path style="clip-path:url(#SVGID_2_);fill:#005AA1;" d="M269.857,96.514c0,43.396-36.877,78.577-82.366,78.577
		c-45.487,0-82.363-35.182-82.363-78.577c0-43.397,36.876-78.579,82.363-78.579C232.98,17.935,269.857,53.116,269.857,96.514"/>
	<path style="clip-path:url(#SVGID_2_);fill:#005AA1;" d="M269.516,96.443c0,43.254-36.752,78.32-82.092,78.32
		c-45.335,0-82.09-35.066-82.09-78.32c0-43.253,36.755-78.319,82.09-78.319C232.764,18.125,269.516,53.19,269.516,96.443"/>
	<path style="clip-path:url(#SVGID_2_);fill:#005AA1;" d="M269.175,96.375c0,43.109-36.63,78.057-81.819,78.057
		c-45.186,0-81.817-34.945-81.817-78.057c0-43.112,36.632-78.061,81.817-78.061C232.545,18.314,269.175,53.263,269.175,96.375"/>
	<path style="clip-path:url(#SVGID_2_);fill:#005BA1;" d="M268.834,96.307c0,42.967-36.507,77.799-81.546,77.799
		c-45.036,0-81.547-34.832-81.547-77.799c0-42.97,36.511-77.8,81.547-77.8C232.327,18.507,268.834,53.337,268.834,96.307"/>
	<path style="clip-path:url(#SVGID_2_);fill:#005BA1;" d="M268.494,96.234c0,42.826-36.387,77.543-81.271,77.543
		c-44.888,0-81.276-34.717-81.276-77.543c0-42.822,36.388-77.539,81.276-77.539C232.107,18.697,268.494,53.412,268.494,96.234"/>
	<path style="clip-path:url(#SVGID_2_);fill:#005BA2;" d="M268.152,96.168c0,42.68-36.262,77.277-80.998,77.277
		c-44.738,0-81.003-34.6-81.003-77.277c0-42.681,36.266-77.281,81.003-77.281C231.891,18.887,268.152,53.487,268.152,96.168"/>
	<path style="clip-path:url(#SVGID_2_);fill:#005BA2;" d="M267.816,96.102c0,42.532-36.145,77.019-80.732,77.019
		c-44.583,0-80.729-34.485-80.729-77.019c0-42.541,36.146-77.024,80.729-77.024C231.673,19.077,267.816,53.561,267.816,96.102"/>
	<path style="clip-path:url(#SVGID_2_);fill:#005BA2;" d="M267.477,96.029c0,42.391-36.021,76.761-80.459,76.761
		c-44.436,0-80.458-34.37-80.458-76.761c0-42.396,36.022-76.762,80.458-76.762C231.454,19.267,267.477,53.634,267.477,96.029"/>
	<path style="clip-path:url(#SVGID_2_);fill:#005CA3;" d="M267.135,95.959c0,42.253-35.9,76.502-80.184,76.502
		c-44.286,0-80.187-34.249-80.187-76.502c0-42.251,35.901-76.5,80.187-76.5C231.234,19.459,267.135,53.708,267.135,95.959"/>
	<path style="clip-path:url(#SVGID_2_);fill:#005CA3;" d="M266.797,95.893c0,42.105-35.779,76.239-79.914,76.239
		c-44.136,0-79.913-34.134-79.913-76.239c0-42.108,35.777-76.243,79.913-76.243C231.018,19.649,266.797,53.783,266.797,95.893"/>
	<path style="clip-path:url(#SVGID_2_);fill:#005CA3;" d="M266.454,95.822c0,41.963-35.654,75.979-79.64,75.979
		c-43.984,0-79.642-34.018-79.642-75.979c0-41.964,35.657-75.983,79.642-75.983C230.8,19.839,266.454,53.858,266.454,95.822"/>
	<path style="clip-path:url(#SVGID_2_);fill:#005CA3;" d="M266.116,95.753c0,41.817-35.534,75.72-79.369,75.72
		c-43.834,0-79.367-33.9-79.367-75.72c0-41.821,35.533-75.721,79.367-75.721C230.582,20.032,266.116,53.932,266.116,95.753"/>
	<path style="clip-path:url(#SVGID_2_);fill:#005CA3;" d="M265.775,95.684c0,41.676-35.414,75.461-79.096,75.461
		c-43.685,0-79.098-33.785-79.098-75.461s35.413-75.461,79.098-75.461C230.361,20.222,265.775,54.007,265.775,95.684"/>
	<path style="clip-path:url(#SVGID_2_);fill:#005CA3;" d="M265.436,95.615c0,41.531-35.289,75.201-78.824,75.201
		c-43.533,0-78.824-33.67-78.824-75.201c0-41.534,35.291-75.204,78.824-75.204C230.146,20.411,265.436,54.082,265.436,95.615"/>
	<path style="clip-path:url(#SVGID_2_);fill:#005CA3;" d="M265.096,95.546c0,41.39-35.168,74.938-78.552,74.938
		c-43.383,0-78.551-33.551-78.551-74.938c0-41.389,35.168-74.944,78.551-74.944C229.928,20.602,265.096,54.157,265.096,95.546"/>
	<path style="clip-path:url(#SVGID_2_);fill:#005DA4;" d="M264.755,95.475c0,41.248-35.046,74.684-78.278,74.684
		c-43.23,0-78.28-33.437-78.28-74.684c0-41.246,35.049-74.681,78.28-74.681C229.709,20.794,264.755,54.229,264.755,95.475"/>
	<path style="clip-path:url(#SVGID_2_);fill:#005DA4;" d="M264.414,95.407c0,41.104-34.926,74.424-78.007,74.424
		c-43.082,0-78.008-33.32-78.008-74.424c0-41.104,34.926-74.423,78.008-74.423C229.488,20.984,264.414,54.304,264.414,95.407"/>
	<path style="clip-path:url(#SVGID_2_);fill:#005EA4;" d="M264.074,95.337c0,40.959-34.803,74.163-77.734,74.163
		c-42.93,0-77.733-33.204-77.733-74.163s34.803-74.163,77.733-74.163C229.271,21.174,264.074,54.377,264.074,95.337"/>
	<path style="clip-path:url(#SVGID_2_);fill:#005EA4;" d="M263.732,95.27c0,40.814-34.678,73.903-77.461,73.903
		c-42.78,0-77.462-33.089-77.462-73.903c0-40.817,34.682-73.905,77.462-73.905C229.055,21.364,263.732,54.453,263.732,95.27"/>
	<path style="clip-path:url(#SVGID_2_);fill:#005EA4;" d="M263.395,95.198c0,40.671-34.56,73.645-77.189,73.645
		c-42.628,0-77.191-32.974-77.191-73.645c0-40.67,34.563-73.642,77.191-73.642C228.835,21.556,263.395,54.528,263.395,95.198"/>
	<path style="clip-path:url(#SVGID_2_);fill:#005EA5;" d="M263.053,95.131c0,40.526-34.434,73.383-76.916,73.383
		c-42.479,0-76.917-32.855-76.917-73.383c0-40.529,34.437-73.384,76.917-73.384C228.619,21.747,263.053,54.602,263.053,95.131"/>
	<path style="clip-path:url(#SVGID_2_);fill:#005EA5;" d="M262.713,95.062c0,40.386-34.314,73.124-76.645,73.124
		c-42.332,0-76.646-32.737-76.646-73.124c0-40.384,34.315-73.125,76.646-73.125C228.398,21.937,262.713,54.677,262.713,95.062"/>
	<path style="clip-path:url(#SVGID_2_);fill:#005EA5;" d="M262.375,94.993c0,40.241-34.193,72.862-76.374,72.862
		c-42.179,0-76.372-32.621-76.372-72.862c0-40.242,34.192-72.867,76.372-72.867C228.182,22.126,262.375,54.751,262.375,94.993"/>
	<path style="clip-path:url(#SVGID_2_);fill:#005EA5;" d="M262.034,94.923c0,40.099-34.072,72.604-76.101,72.604
		c-42.031,0-76.102-32.508-76.102-72.604c0-40.099,34.071-72.604,76.102-72.604C227.962,22.319,262.034,54.824,262.034,94.923"/>
	<path style="clip-path:url(#SVGID_2_);fill:#005FA5;" d="M261.691,94.853c0,39.954-33.946,72.347-75.826,72.347
		c-41.879,0-75.829-32.394-75.829-72.347c0-39.954,33.95-72.344,75.829-72.344C227.745,22.509,261.691,54.899,261.691,94.853"/>
	<path style="clip-path:url(#SVGID_2_);fill:#005FA6;" d="M261.354,94.785c0,39.81-33.826,72.085-75.557,72.085
		c-41.729,0-75.554-32.275-75.554-72.085c0-39.812,33.826-72.085,75.554-72.085C227.527,22.7,261.354,54.973,261.354,94.785"/>
	<path style="clip-path:url(#SVGID_2_);fill:#005FA6;" d="M261.012,94.717c0,39.665-33.703,71.824-75.281,71.824
		c-41.578,0-75.285-32.159-75.285-71.824c0-39.668,33.707-71.827,75.285-71.827C227.309,22.89,261.012,55.048,261.012,94.717"/>
	<path style="clip-path:url(#SVGID_2_);fill:#0060A6;" d="M260.671,94.647c0,39.521-33.58,71.563-75.008,71.563
		c-41.429,0-75.014-32.043-75.014-71.563c0-39.525,33.584-71.565,75.014-71.565C227.091,23.082,260.671,55.123,260.671,94.647"/>
	<path style="clip-path:url(#SVGID_2_);fill:#0060A6;" d="M260.333,94.576c0,39.382-33.46,71.306-74.737,71.306
		c-41.279,0-74.74-31.924-74.74-71.306c0-39.379,33.461-71.304,74.74-71.304C226.873,23.272,260.333,55.197,260.333,94.576"/>
	<path style="clip-path:url(#SVGID_2_);fill:#0060A7;" d="M259.995,94.509c0,39.237-33.341,71.044-74.468,71.044
		c-41.128,0-74.468-31.807-74.468-71.044c0-39.238,33.34-71.046,74.468-71.046C226.654,23.462,259.995,55.271,259.995,94.509"/>
	<path style="clip-path:url(#SVGID_2_);fill:#0060A7;" d="M259.652,94.438c0,39.095-33.217,70.785-74.195,70.785
		c-40.975,0-74.192-31.689-74.192-70.785c0-39.094,33.218-70.784,74.192-70.784C226.438,23.655,259.652,55.344,259.652,94.438"/>
	<path style="clip-path:url(#SVGID_2_);fill:#0060A7;" d="M259.314,94.371c0,38.947-33.098,70.523-73.922,70.523
		c-40.827,0-73.923-31.576-73.923-70.523c0-38.952,33.097-70.526,73.923-70.526C226.218,23.845,259.314,55.419,259.314,94.371"/>
	<path style="clip-path:url(#SVGID_2_);fill:#0060A7;" d="M258.975,94.301c0,38.807-32.975,70.268-73.65,70.268
		c-40.676,0-73.648-31.461-73.648-70.268s32.973-70.266,73.648-70.266C226,24.035,258.975,55.494,258.975,94.301"/>
	<path style="clip-path:url(#SVGID_2_);fill:#0060A7;" d="M258.634,94.233c0,38.662-32.852,70.007-73.378,70.007
		c-40.524,0-73.378-31.346-73.378-70.007c0-38.665,32.854-70.009,73.378-70.009C225.782,24.225,258.634,55.569,258.634,94.233"/>
	<path style="clip-path:url(#SVGID_2_);fill:#0061A8;" d="M258.293,94.162c0,38.521-32.729,69.746-73.105,69.746
		c-40.375,0-73.104-31.227-73.104-69.746c0-38.52,32.73-69.747,73.104-69.747C225.563,24.415,258.293,55.643,258.293,94.162"/>
	<path style="clip-path:url(#SVGID_2_);fill:#0061A8;" d="M257.953,94.095c0,38.376-32.607,69.486-72.833,69.486
		c-40.223,0-72.832-31.11-72.832-69.486c0-38.377,32.609-69.488,72.832-69.488C225.346,24.607,257.953,55.718,257.953,94.095"/>
	<path style="clip-path:url(#SVGID_2_);fill:#0061A8;" d="M257.609,94.025c0,38.23-32.483,69.225-72.559,69.225
		c-40.075,0-72.561-30.994-72.561-69.225c0-38.236,32.486-69.228,72.561-69.228C225.126,24.797,257.609,55.79,257.609,94.025"/>
	<path style="clip-path:url(#SVGID_2_);fill:#0062A8;" d="M257.271,93.954c0,38.09-32.362,68.969-72.287,68.969
		c-39.923,0-72.29-30.879-72.29-68.969c0-38.089,32.366-68.967,72.29-68.967C224.909,24.987,257.271,55.865,257.271,93.954"/>
	<path style="clip-path:url(#SVGID_2_);fill:#0062A8;" d="M256.932,93.887c0,37.945-32.242,68.705-72.013,68.705
		c-39.775,0-72.018-30.76-72.018-68.705c0-37.947,32.242-68.709,72.018-68.709C224.689,25.177,256.932,55.94,256.932,93.887"/>
	<path style="clip-path:url(#SVGID_2_);fill:#0062A8;" d="M256.593,93.816c0,37.801-32.12,68.448-71.743,68.448
		c-39.625,0-71.745-30.646-71.745-68.448c0-37.802,32.121-68.447,71.745-68.447C224.473,25.37,256.593,56.014,256.593,93.816"/>
	<path style="clip-path:url(#SVGID_2_);fill:#0062A8;" d="M256.253,93.749c0,37.656-31.998,68.187-71.472,68.187
		c-39.473,0-71.47-30.529-71.47-68.187c0-37.66,31.997-68.189,71.47-68.189C224.255,25.56,256.253,56.089,256.253,93.749"/>
	<path style="clip-path:url(#SVGID_2_);fill:#0063A9;" d="M255.911,93.679c0,37.516-31.876,67.926-71.198,67.926
		c-39.323,0-71.199-30.41-71.199-67.926s31.875-67.929,71.199-67.929C224.035,25.75,255.911,56.163,255.911,93.679"/>
	<path style="clip-path:url(#SVGID_2_);fill:#0063A9;" d="M255.57,93.611c0,37.37-31.754,67.667-70.926,67.667
		c-39.171,0-70.928-30.297-70.928-67.667c0-37.373,31.756-67.669,70.928-67.669C223.816,25.942,255.57,56.238,255.57,93.611"/>
	<path style="clip-path:url(#SVGID_2_);fill:#0063A9;" d="M255.232,93.54c0,37.229-31.631,67.407-70.655,67.407
		c-39.021,0-70.653-30.178-70.653-67.407c0-37.227,31.631-67.408,70.653-67.408C223.602,26.132,255.232,56.313,255.232,93.54"/>
	<path style="clip-path:url(#SVGID_2_);fill:#0063AA;" d="M254.895,93.471c0,37.083-31.514,67.149-70.383,67.149
		c-38.873,0-70.384-30.065-70.384-67.149c0-37.085,31.511-67.147,70.384-67.147C223.381,26.323,254.895,56.385,254.895,93.471"/>
	<path style="clip-path:url(#SVGID_2_);fill:#0063AA;" d="M254.552,93.402c0,36.94-31.39,66.887-70.11,66.887
		c-38.718,0-70.107-29.946-70.107-66.887c0-36.942,31.39-66.889,70.107-66.889C223.162,26.513,254.552,56.46,254.552,93.402"/>
	<path style="clip-path:url(#SVGID_2_);fill:#0064AA;" d="M254.211,93.335c0,36.793-31.268,66.627-69.835,66.627
		c-38.572,0-69.838-29.834-69.838-66.627c0-36.8,31.267-66.629,69.838-66.629C222.943,26.706,254.211,56.535,254.211,93.335"/>
	<path style="clip-path:url(#SVGID_2_);fill:#0064AA;" d="M253.87,93.264c0,36.652-31.142,66.366-69.562,66.366
		c-38.424,0-69.568-29.714-69.568-66.366c0-36.654,31.145-66.368,69.568-66.368C222.729,26.896,253.87,56.609,253.87,93.264"/>
	<path style="clip-path:url(#SVGID_2_);fill:#0064AA;" d="M253.531,93.194c0,36.512-31.021,66.108-69.295,66.108
		c-38.269,0-69.291-29.597-69.291-66.108c0-36.51,31.022-66.109,69.291-66.109C222.512,27.085,253.531,56.685,253.531,93.194"/>
	<path style="clip-path:url(#SVGID_2_);fill:#0064AA;" d="M253.191,93.126c0,36.368-30.9,65.851-69.021,65.851
		c-38.117,0-69.019-29.481-69.019-65.851c0-36.37,30.902-65.851,69.019-65.851C222.291,27.275,253.191,56.756,253.191,93.126"/>
	<path style="clip-path:url(#SVGID_2_);fill:#0064AA;" d="M252.854,93.057c0,36.223-30.78,65.589-68.75,65.589
		c-37.969,0-68.75-29.366-68.75-65.589c0-36.225,30.781-65.591,68.75-65.591C222.073,27.466,252.854,56.832,252.854,93.057"/>
	<path style="clip-path:url(#SVGID_2_);fill:#0065AB;" d="M252.51,92.989c0,36.079-30.654,65.329-68.474,65.329
		c-37.817,0-68.477-29.25-68.477-65.329c0-36.083,30.659-65.331,68.477-65.331C221.854,27.658,252.51,56.906,252.51,92.989"/>
	<path style="clip-path:url(#SVGID_2_);fill:#0065AB;" d="M252.171,92.918c0,35.938-30.534,65.07-68.203,65.07
		c-37.668,0-68.204-29.133-68.204-65.07c0-35.937,30.535-65.07,68.204-65.07S252.171,56.981,252.171,92.918"/>
	<path style="clip-path:url(#SVGID_2_);fill:#0065AB;" d="M251.831,92.851c0,35.793-30.413,64.809-67.933,64.809
		c-37.516,0-67.93-29.016-67.93-64.809c0-35.796,30.414-64.813,67.93-64.813C221.418,28.038,251.831,57.055,251.831,92.851"/>
	<path style="clip-path:url(#SVGID_2_);fill:#0065AB;" d="M251.49,92.78c0,35.651-30.29,64.55-67.657,64.55
		c-37.368,0-67.66-28.898-67.66-64.55c0-35.65,30.292-64.55,67.66-64.55C221.2,28.23,251.49,57.13,251.49,92.78"/>
	<path style="clip-path:url(#SVGID_2_);fill:#0065AB;" d="M251.15,92.712c0,35.506-30.17,64.288-67.387,64.288
		c-37.216,0-67.387-28.781-67.387-64.288c0-35.508,30.171-64.292,67.387-64.292C220.98,28.42,251.15,57.204,251.15,92.712"/>
	<path style="clip-path:url(#SVGID_2_);fill:#0066AC;" d="M250.811,92.642c0,35.363-30.049,64.029-67.112,64.029
		c-37.068,0-67.114-28.666-67.114-64.029c0-35.362,30.046-64.031,67.114-64.031C220.762,28.61,250.811,57.279,250.811,92.642"/>
	<path style="clip-path:url(#SVGID_2_);fill:#0066AC;" d="M250.471,92.574c0,35.218-29.927,63.768-66.842,63.768
		c-36.917,0-66.843-28.55-66.843-63.768c0-35.222,29.925-63.774,66.843-63.774C220.544,28.8,250.471,57.352,250.471,92.574"/>
	<path style="clip-path:url(#SVGID_2_);fill:#0066AC;" d="M250.13,92.504c0,35.074-29.803,63.512-66.567,63.512
		c-36.767,0-66.571-28.438-66.571-63.512c0-35.078,29.805-63.511,66.571-63.511C220.327,28.993,250.13,57.426,250.13,92.504"/>
	<path style="clip-path:url(#SVGID_2_);fill:#0066AC;" d="M249.791,92.437c0,34.93-29.682,63.247-66.298,63.247
		c-36.614,0-66.297-28.316-66.297-63.247c0-34.935,29.683-63.254,66.297-63.254C220.109,29.183,249.791,57.501,249.791,92.437"/>
	<path style="clip-path:url(#SVGID_2_);fill:#0066AC;" d="M249.448,92.366c0,34.788-29.56,62.991-66.022,62.991
		c-36.466,0-66.026-28.203-66.026-62.991c0-34.791,29.561-62.993,66.026-62.993S249.448,57.575,249.448,92.366"/>
	<path style="clip-path:url(#SVGID_2_);fill:#0067AC;" d="M249.111,92.296c0,34.646-29.438,62.731-65.756,62.731
		c-36.314,0-65.75-28.086-65.75-62.731c0-34.645,29.436-62.731,65.75-62.731C219.673,29.565,249.111,57.65,249.111,92.296"/>
	<path style="clip-path:url(#SVGID_2_);fill:#0067AC;" d="M248.77,92.228c0,34.502-29.313,62.47-65.478,62.47
		c-36.167,0-65.483-27.968-65.483-62.47c0-34.502,29.316-62.473,65.483-62.473C219.455,29.755,248.77,57.726,248.77,92.228"/>
	<path style="clip-path:url(#SVGID_2_);fill:#0067AD;" d="M248.432,92.158c0,34.359-29.195,62.213-65.209,62.213
		c-36.015,0-65.209-27.854-65.209-62.213c0-34.358,29.195-62.212,65.209-62.212C219.234,29.945,248.432,57.8,248.432,92.158"/>
	<path style="clip-path:url(#SVGID_2_);fill:#0067AD;" d="M248.091,92.089c0,34.213-29.071,61.95-64.938,61.95
		c-35.862,0-64.933-27.736-64.933-61.95s29.071-61.954,64.933-61.954C219.02,30.135,248.091,57.875,248.091,92.089"/>
	<path style="clip-path:url(#SVGID_2_);fill:#0068AD;" d="M247.749,92.02c0,34.071-28.95,61.692-64.663,61.692
		c-35.711,0-64.664-27.621-64.664-61.692c0-34.073,28.952-61.694,64.664-61.694C218.799,30.325,247.749,57.947,247.749,92.02"/>
	<path style="clip-path:url(#SVGID_2_);fill:#0068AD;" d="M247.409,91.952c0,33.924-28.827,61.433-64.392,61.433
		c-35.563,0-64.391-27.509-64.391-61.433c0-33.931,28.828-61.435,64.391-61.435C218.582,30.518,247.409,58.021,247.409,91.952"/>
	<path style="clip-path:url(#SVGID_2_);fill:#0068AD;" d="M247.07,91.882c0,33.782-28.705,61.173-64.12,61.173
		c-35.41,0-64.118-27.391-64.118-61.173c0-33.786,28.708-61.174,64.118-61.174C218.365,30.708,247.07,58.096,247.07,91.882"/>
	<path style="clip-path:url(#SVGID_2_);fill:#0068AE;" d="M246.73,91.811c0,33.643-28.586,60.916-63.85,60.916
		c-35.261,0-63.846-27.271-63.846-60.916c0-33.64,28.585-60.914,63.846-60.914C218.145,30.897,246.73,58.171,246.73,91.811"/>
	<path style="clip-path:url(#SVGID_2_);fill:#0068AE;" d="M246.389,91.744c0,33.499-28.459,60.652-63.572,60.652
		c-35.111,0-63.574-27.153-63.574-60.652c0-33.498,28.463-60.656,63.574-60.656C217.93,31.087,246.389,58.246,246.389,91.744"/>
	<path style="clip-path:url(#SVGID_2_);fill:#0069AE;" d="M246.049,91.674c0,33.354-28.341,60.395-63.3,60.395
		c-34.962,0-63.303-27.041-63.303-60.395c0-33.356,28.341-60.393,63.303-60.393C217.708,31.281,246.049,58.318,246.049,91.674"/>
	<path style="clip-path:url(#SVGID_2_);fill:#0069AE;" d="M245.708,91.605c0,33.209-28.22,60.133-63.028,60.133
		s-63.031-26.924-63.031-60.133c0-33.212,28.222-60.134,63.031-60.134S245.708,58.393,245.708,91.605"/>
	<path style="clip-path:url(#SVGID_2_);fill:#0069AE;" d="M245.368,91.536c0,33.067-28.097,59.874-62.757,59.874
		s-62.757-26.807-62.757-59.874c0-33.069,28.097-59.875,62.757-59.875S245.368,58.467,245.368,91.536"/>
	<path style="clip-path:url(#SVGID_2_);fill:#0069AF;" d="M245.029,91.467c0,32.922-27.975,59.615-62.484,59.615
		c-34.509,0-62.486-26.693-62.486-59.615c0-32.925,27.976-59.614,62.486-59.614S245.029,58.542,245.029,91.467"/>
	<path style="clip-path:url(#SVGID_2_);fill:#0069AF;" d="M244.689,91.397c0,32.781-27.854,59.354-62.213,59.354
		c-34.36,0-62.212-26.571-62.212-59.354c0-32.782,27.852-59.354,62.212-59.354C216.836,32.043,244.689,58.616,244.689,91.397"/>
	<path style="clip-path:url(#SVGID_2_);fill:#006AAF;" d="M244.348,91.329c0,32.638-27.729,59.095-61.938,59.095
		c-34.21,0-61.941-26.457-61.941-59.095c0-32.638,27.731-59.096,61.941-59.096C216.618,32.233,244.348,58.691,244.348,91.329"/>
	<path style="clip-path:url(#SVGID_2_);fill:#006AAF;" d="M244.009,91.26c0,32.493-27.608,58.833-61.667,58.833
		c-34.061,0-61.669-26.34-61.669-58.833c0-32.493,27.609-58.836,61.669-58.836C216.4,32.423,244.009,58.767,244.009,91.26"/>
	<path style="clip-path:url(#SVGID_2_);fill:#006AB0;" d="M243.669,91.191c0,32.349-27.485,58.575-61.396,58.575
		c-33.909,0-61.396-26.226-61.396-58.575c0-32.351,27.485-58.575,61.396-58.575C216.184,32.616,243.669,58.84,243.669,91.191"/>
	<path style="clip-path:url(#SVGID_2_);fill:#006AB0;" d="M243.33,91.122c0,32.206-27.366,58.312-61.125,58.312
		c-33.758,0-61.124-26.105-61.124-58.312c0-32.208,27.366-58.316,61.124-58.316C215.964,32.806,243.33,58.914,243.33,91.122"/>
	<path style="clip-path:url(#SVGID_2_);fill:#006AB0;" d="M242.988,91.053c0,32.063-27.244,58.055-60.852,58.055
		c-33.607,0-60.852-25.992-60.852-58.055c0-32.065,27.246-58.057,60.852-58.057C215.743,32.996,242.988,58.987,242.988,91.053"/>
	<path style="clip-path:url(#SVGID_2_);fill:#006BB0;" d="M242.648,90.983c0,31.919-27.121,57.792-60.58,57.792
		c-33.458,0-60.577-25.873-60.577-57.792c0-31.921,27.121-57.797,60.577-57.797C215.527,33.186,242.648,59.063,242.648,90.983"/>
	<path style="clip-path:url(#SVGID_2_);fill:#006BB0;" d="M242.307,90.914c0,31.775-26.996,57.537-60.305,57.537
		c-33.306,0-60.308-25.762-60.308-57.537c0-31.776,27.001-57.536,60.308-57.536C215.311,33.378,242.307,59.138,242.307,90.914"/>
	<path style="clip-path:url(#SVGID_2_);fill:#006BB0;" d="M241.968,90.845c0,31.632-26.877,57.276-60.034,57.276
		c-33.156,0-60.033-25.645-60.033-57.276c0-31.633,26.876-57.277,60.033-57.277C215.091,33.568,241.968,59.212,241.968,90.845"/>
	<path style="clip-path:url(#SVGID_2_);fill:#006BB0;" d="M241.627,90.775c0,31.489-26.754,57.017-59.761,57.017
		c-33.005,0-59.762-25.528-59.762-57.017s26.757-57.017,59.762-57.017C214.873,33.758,241.627,59.287,241.627,90.775"/>
	<path style="clip-path:url(#SVGID_2_);fill:#006BB1;" d="M241.288,90.707c0,31.344-26.636,56.756-59.49,56.756
		c-32.855,0-59.49-25.412-59.49-56.756c0-31.346,26.635-56.759,59.49-56.759C214.652,33.948,241.288,59.361,241.288,90.707"/>
	<path style="clip-path:url(#SVGID_2_);fill:#006CB1;" d="M240.949,90.638c0,31.201-26.514,56.495-59.219,56.495
		c-32.705,0-59.216-25.294-59.216-56.495c0-31.202,26.512-56.497,59.216-56.497C214.438,34.141,240.949,59.436,240.949,90.638"/>
	<path style="clip-path:url(#SVGID_2_);fill:#006CB1;" d="M240.607,90.569c0,31.057-26.392,56.236-58.945,56.236
		c-32.554,0-58.945-25.179-58.945-56.236c0-31.061,26.391-56.238,58.945-56.238C214.217,34.331,240.607,59.508,240.607,90.569"/>
	<path style="clip-path:url(#SVGID_2_);fill:#006CB2;" d="M240.27,90.5c0,30.913-26.271,55.975-58.674,55.975
		c-32.404,0-58.671-25.063-58.671-55.975c0-30.917,26.268-55.979,58.671-55.979C213.999,34.521,240.27,59.583,240.27,90.5"/>
	<path style="clip-path:url(#SVGID_2_);fill:#006CB2;" d="M239.928,90.429c0,30.773-26.146,55.717-58.398,55.717
		c-32.256,0-58.401-24.943-58.401-55.717c0-30.771,26.145-55.718,58.401-55.718C213.782,34.711,239.928,59.657,239.928,90.429"/>
	<path style="clip-path:url(#SVGID_2_);fill:#006CB2;" d="M239.589,90.361c0,30.629-26.026,55.458-58.13,55.458
		c-32.103,0-58.128-24.828-58.128-55.458c0-30.629,26.026-55.457,58.128-55.457C213.563,34.904,239.589,59.732,239.589,90.361"/>
	<path style="clip-path:url(#SVGID_2_);fill:#006DB2;" d="M239.247,90.291c0,30.484-25.904,55.197-57.854,55.197
		c-31.954,0-57.854-24.713-57.854-55.197c0-30.483,25.901-55.196,57.854-55.196C213.343,35.094,239.247,59.807,239.247,90.291"/>
	<path style="clip-path:url(#SVGID_2_);fill:#006DB2;" d="M238.908,90.223c0,30.337-25.782,54.937-57.586,54.937
		c-31.802,0-57.582-24.6-57.582-54.937c0-30.344,25.779-54.939,57.582-54.939C213.126,35.284,238.908,59.879,238.908,90.223"/>
	<path style="clip-path:url(#SVGID_2_);fill:#006DB2;" d="M238.564,90.152c0,30.198-25.656,54.676-57.308,54.676
		c-31.655,0-57.314-24.479-57.314-54.676s25.659-54.678,57.314-54.678C212.908,35.474,238.564,59.954,238.564,90.152"/>
	<path style="clip-path:url(#SVGID_2_);fill:#006DB3;" d="M238.227,90.085c0,30.051-25.533,54.416-57.037,54.416
		c-31.501,0-57.039-24.365-57.039-54.416c0-30.057,25.537-54.418,57.039-54.418C212.691,35.667,238.227,60.028,238.227,90.085"/>
	<path style="clip-path:url(#SVGID_2_);fill:#006EB3;" d="M237.887,90.014c0,29.912-25.414,54.16-56.766,54.16
		c-31.353,0-56.767-24.248-56.767-54.16c0-29.911,25.415-54.158,56.767-54.158C212.473,35.856,237.887,60.104,237.887,90.014"/>
	<path style="clip-path:url(#SVGID_2_);fill:#006EB3;" d="M237.548,89.947c0,29.766-25.293,53.896-56.496,53.896
		c-31.199,0-56.492-24.13-56.492-53.896c0-29.768,25.293-53.9,56.492-53.9C212.255,36.046,237.548,60.179,237.548,89.947"/>
	<path style="clip-path:url(#SVGID_2_);fill:#006EB3;" d="M237.206,89.877c0,29.624-25.168,53.639-56.222,53.639
		c-31.051,0-56.221-24.016-56.221-53.639c0-29.625,25.17-53.641,56.221-53.641C212.038,36.237,237.206,60.252,237.206,89.877"/>
	<path style="clip-path:url(#SVGID_2_);fill:#006EB4;" d="M236.866,89.807c0,29.48-25.048,53.38-55.948,53.38
		c-30.9,0-55.949-23.899-55.949-53.38c0-29.479,25.048-53.378,55.949-53.378C211.818,36.429,236.866,60.328,236.866,89.807"/>
	<path style="clip-path:url(#SVGID_2_);fill:#006EB4;" d="M236.525,89.739c0,29.336-24.928,53.118-55.676,53.118
		c-30.75,0-55.678-23.782-55.678-53.118c0-29.337,24.926-53.12,55.678-53.12C211.598,36.619,236.525,60.402,236.525,89.739"/>
	<path style="clip-path:url(#SVGID_2_);fill:#006FB4;" d="M236.186,89.67c0,29.191-24.804,52.857-55.402,52.857
		c-30.599,0-55.405-23.666-55.405-52.857c0-29.196,24.806-52.861,55.405-52.861C211.382,36.809,236.186,60.475,236.186,89.67"/>
	<path style="clip-path:url(#SVGID_2_);fill:#006FB4;" d="M235.85,89.601c0,29.049-24.686,52.597-55.136,52.597
		c-30.45,0-55.131-23.548-55.131-52.597c0-29.051,24.681-52.6,55.131-52.6C211.164,37.001,235.85,60.55,235.85,89.601"/>
	<path style="clip-path:url(#SVGID_2_);fill:#006FB4;" d="M235.507,89.53c0,28.905-24.562,52.339-54.86,52.339
		c-30.297,0-54.859-23.434-54.859-52.339c0-28.906,24.562-52.339,54.859-52.339C210.945,37.191,235.507,60.624,235.507,89.53"/>
	<path style="clip-path:url(#SVGID_2_);fill:#006FB4;" d="M235.164,89.463c0,28.762-24.438,52.077-54.586,52.077
		c-30.148,0-54.588-23.315-54.588-52.077c0-28.764,24.439-52.082,54.588-52.082C210.729,37.381,235.164,60.699,235.164,89.463"/>
	<path style="clip-path:url(#SVGID_2_);fill:#0070B5;" d="M234.825,89.392c0,28.62-24.317,51.819-54.313,51.819
		c-29.998,0-54.317-23.199-54.317-51.819c0-28.619,24.319-51.821,54.317-51.821C210.508,37.571,234.825,60.773,234.825,89.392"/>
	<path style="clip-path:url(#SVGID_2_);fill:#0070B5;" d="M234.486,89.325c0,28.474-24.195,51.559-54.043,51.559
		c-29.851,0-54.044-23.085-54.044-51.559c0-28.477,24.195-51.561,54.044-51.561C210.291,37.764,234.486,60.848,234.486,89.325"/>
	<path style="clip-path:url(#SVGID_2_);fill:#0070B5;" d="M234.145,89.254c0,28.332-24.072,51.301-53.77,51.301
		s-53.769-22.969-53.769-51.301s24.072-51.3,53.769-51.3C210.07,37.954,234.145,60.922,234.145,89.254"/>
	<path style="clip-path:url(#SVGID_2_);fill:#0070B5;" d="M233.809,89.187c0,28.188-23.955,51.042-53.5,51.042
		c-29.549,0-53.5-22.854-53.5-51.042c0-28.189,23.951-51.043,53.5-51.043C209.854,38.144,233.809,60.998,233.809,89.187"/>
	<path style="clip-path:url(#SVGID_2_);fill:#0070B5;" d="M233.465,89.116c0,28.044-23.828,50.778-53.227,50.778
		c-29.396,0-53.226-22.734-53.226-50.778c0-28.047,23.832-50.782,53.226-50.782C209.637,38.334,233.465,61.069,233.465,89.116"/>
	<path style="clip-path:url(#SVGID_2_);fill:#0070B5;" d="M233.126,89.048c0,27.9-23.709,50.521-52.955,50.521
		c-29.245,0-52.952-22.62-52.952-50.521c0-27.904,23.707-50.524,52.952-50.524C209.417,38.524,233.126,61.145,233.126,89.048"/>
	<path style="clip-path:url(#SVGID_2_);fill:#0071B6;" d="M232.786,88.978c0,27.756-23.586,50.264-52.681,50.264
		c-29.099,0-52.684-22.508-52.684-50.264c0-27.759,23.585-50.262,52.684-50.262C209.2,38.716,232.786,61.219,232.786,88.978"/>
	<path style="clip-path:url(#SVGID_2_);fill:#0071B6;" d="M232.445,88.908c0,27.615-23.463,50.002-52.41,50.002
		c-28.945,0-52.41-22.387-52.41-50.002s23.464-50.002,52.41-50.002C208.982,38.906,232.445,61.293,232.445,88.908"/>
	<path style="clip-path:url(#SVGID_2_);fill:#0071B6;" d="M232.104,88.841c0,27.47-23.342,49.738-52.135,49.738
		c-28.796,0-52.138-22.271-52.138-49.738c0-27.472,23.342-49.745,52.138-49.745C208.764,39.096,232.104,61.369,232.104,88.841"/>
	<path style="clip-path:url(#SVGID_2_);fill:#0071B6;" d="M231.766,88.77c0,27.328-23.22,49.482-51.863,49.482
		c-28.646,0-51.866-22.154-51.866-49.482c0-27.33,23.22-49.481,51.866-49.481C208.546,39.289,231.766,61.44,231.766,88.77"/>
	<path style="clip-path:url(#SVGID_2_);fill:#0072B7;" d="M231.424,88.703c0,27.182-23.098,49.222-51.592,49.222
		c-28.493,0-51.593-22.04-51.593-49.222c0-27.187,23.1-49.224,51.593-49.224C208.326,39.479,231.424,61.516,231.424,88.703"/>
	<path style="clip-path:url(#SVGID_2_);fill:#0072B7;" d="M231.085,88.632c0,27.043-22.978,48.964-51.321,48.964
		s-51.318-21.921-51.318-48.964c0-27.041,22.975-48.963,51.318-48.963C208.107,39.668,231.085,61.591,231.085,88.632"/>
	<path style="clip-path:url(#SVGID_2_);fill:#0072B7;" d="M230.746,88.564c0,26.896-22.854,48.702-51.048,48.702
		s-51.049-21.806-51.049-48.702c0-26.9,22.855-48.705,51.049-48.705S230.746,61.665,230.746,88.564"/>
	<path style="clip-path:url(#SVGID_2_);fill:#0072B7;" d="M230.402,88.494c0,26.755-22.73,48.443-50.772,48.443
		c-28.044,0-50.775-21.688-50.775-48.443c0-26.754,22.731-48.442,50.775-48.442C207.672,40.052,230.402,61.74,230.402,88.494"/>
	<path style="clip-path:url(#SVGID_2_);fill:#0072B7;" d="M230.063,88.426c0,26.61-22.606,48.182-50.5,48.182
		s-50.504-21.571-50.504-48.182c0-26.612,22.611-48.184,50.504-48.184S230.063,61.814,230.063,88.426"/>
	<path style="clip-path:url(#SVGID_2_);fill:#0073B8;" d="M229.725,88.356c0,26.467-22.488,47.921-50.231,47.921
		c-27.741,0-50.228-21.454-50.228-47.921c0-26.467,22.487-47.924,50.228-47.924S229.725,61.889,229.725,88.356"/>
	<path style="clip-path:url(#SVGID_2_);fill:#0073B8;" d="M229.387,88.289c0,26.322-22.367,47.661-49.96,47.661
		c-27.592,0-49.959-21.339-49.959-47.661c0-26.324,22.367-47.667,49.959-47.667C207.02,40.622,229.387,61.964,229.387,88.289"/>
	<path style="clip-path:url(#SVGID_2_);fill:#0073B8;" d="M229.043,88.218c0,26.181-22.243,47.402-49.684,47.402
		c-27.441,0-49.688-21.222-49.688-47.402c0-26.182,22.247-47.403,49.688-47.403C206.8,40.815,229.043,62.036,229.043,88.218"/>
	<path style="clip-path:url(#SVGID_2_);fill:#0073B8;" d="M228.704,88.148c0,26.038-22.122,47.142-49.413,47.142
		s-49.414-21.104-49.414-47.142c0-26.038,22.123-47.144,49.414-47.144S228.704,62.11,228.704,88.148"/>
	<path style="clip-path:url(#SVGID_2_);fill:#0073B8;" d="M228.363,88.08c0,25.893-22,46.884-49.141,46.884
		c-27.14,0-49.143-20.991-49.143-46.884c0-25.895,22.003-46.885,49.143-46.885C206.363,41.194,228.363,62.185,228.363,88.08"/>
	<path style="clip-path:url(#SVGID_2_);fill:#0074B9;" d="M228.025,88.012c0,25.748-21.881,46.62-48.871,46.62
		c-26.988,0-48.869-20.872-48.869-46.62c0-25.752,21.881-46.627,48.869-46.627C206.146,41.385,228.025,62.26,228.025,88.012"/>
	<path style="clip-path:url(#SVGID_2_);fill:#0074B9;" d="M227.684,87.941c0,25.606-21.758,46.364-48.597,46.364
		c-26.837,0-48.596-20.758-48.596-46.364c0-25.607,21.759-46.365,48.596-46.365C205.926,41.577,227.684,62.334,227.684,87.941"/>
	<path style="clip-path:url(#SVGID_2_);fill:#0074B9;" d="M227.344,87.872c0,25.462-21.633,46.106-48.324,46.106
		c-26.688,0-48.326-20.645-48.326-46.106s21.636-46.104,48.326-46.104C205.711,41.767,227.344,62.41,227.344,87.872"/>
	<path style="clip-path:url(#SVGID_2_);fill:#0075BA;" d="M227.002,87.804c0,25.318-21.511,45.842-48.051,45.842
		c-26.537,0-48.05-20.524-48.05-45.842c0-25.321,21.513-45.847,48.05-45.847C205.491,41.957,227.002,62.483,227.002,87.804"/>
	<path style="clip-path:url(#SVGID_2_);fill:#0075BA;" d="M226.663,87.734c0,25.175-21.39,45.584-47.776,45.584
		c-26.391,0-47.783-20.409-47.783-45.584c0-25.177,21.392-45.587,47.783-45.587C205.273,42.147,226.663,62.557,226.663,87.734"/>
	<path style="clip-path:url(#SVGID_2_);fill:#0075BA;" d="M226.323,87.667c0,25.03-21.269,45.322-47.509,45.322
		c-26.236,0-47.507-20.292-47.507-45.322c0-25.035,21.271-45.327,47.507-45.327C205.055,42.339,226.323,62.631,226.323,87.667"/>
	<path style="clip-path:url(#SVGID_2_);fill:#0075BA;" d="M225.984,87.596c0,24.888-21.147,45.065-47.236,45.065
		c-26.088,0-47.234-20.179-47.234-45.065c0-24.89,21.146-45.066,47.234-45.066C204.837,42.529,225.984,62.706,225.984,87.596"/>
	<path style="clip-path:url(#SVGID_2_);fill:#0076BA;" d="M225.643,87.528c0,24.742-21.022,44.803-46.963,44.803
		c-25.938,0-46.962-20.062-46.962-44.803c0-24.748,21.025-44.809,46.962-44.809C204.619,42.719,225.643,62.781,225.643,87.528"/>
	<path style="clip-path:url(#SVGID_2_);fill:#0076BA;" d="M225.303,87.458c0,24.601-20.902,44.544-46.689,44.544
		c-25.786,0-46.692-19.943-46.692-44.544c0-24.603,20.906-44.546,46.692-44.546C204.4,42.912,225.303,62.855,225.303,87.458"/>
	<path style="clip-path:url(#SVGID_2_);fill:#0076BA;" d="M224.964,87.39c0,24.456-20.782,44.283-46.42,44.283
		c-25.636,0-46.417-19.827-46.417-44.283c0-24.46,20.781-44.289,46.417-44.289C204.182,43.102,224.964,62.93,224.964,87.39"/>
	<path style="clip-path:url(#SVGID_2_);fill:#0076BB;" d="M224.622,87.319c0,24.313-20.658,44.024-46.146,44.024
		c-25.486,0-46.146-19.711-46.146-44.024c0-24.314,20.66-44.028,46.146-44.028C203.964,43.292,224.622,63.005,224.622,87.319"/>
	<path style="clip-path:url(#SVGID_2_);fill:#0076BB;" d="M224.285,87.25c0,24.172-20.539,43.766-45.874,43.766
		c-25.339,0-45.877-19.594-45.877-43.766c0-24.173,20.539-43.768,45.877-43.768C203.746,43.482,224.285,63.077,224.285,87.25"/>
	<path style="clip-path:url(#SVGID_2_);fill:#0077BC;" d="M223.941,87.181c0,24.028-20.416,43.504-45.6,43.504
		c-25.188,0-45.603-19.478-45.603-43.504c0-24.029,20.415-43.506,45.603-43.506C203.525,43.675,223.941,63.152,223.941,87.181"/>
	<path style="clip-path:url(#SVGID_2_);fill:#0077BC;" d="M223.602,87.112c0,23.885-20.291,43.248-45.328,43.248
		c-25.035,0-45.33-19.361-45.33-43.248c0-23.886,20.294-43.247,45.33-43.247C203.311,43.865,223.602,63.226,223.602,87.112"/>
	<path style="clip-path:url(#SVGID_2_);fill:#0077BC;" d="M223.262,87.043c0,23.741-20.172,42.982-45.058,42.982
		c-24.884,0-45.055-19.241-45.055-42.982c0-23.742,20.171-42.988,45.055-42.988C203.09,44.055,223.262,63.301,223.262,87.043"/>
	<path style="clip-path:url(#SVGID_2_);fill:#0077BC;" d="M222.923,86.974c0,23.596-20.051,42.726-44.782,42.726
		c-24.736,0-44.787-19.13-44.787-42.726c0-23.599,20.05-42.729,44.787-42.729C202.872,44.245,222.923,63.375,222.923,86.974"/>
	<path style="clip-path:url(#SVGID_2_);fill:#0077BC;" d="M222.58,86.905c0,23.452-19.928,42.467-44.51,42.467
		c-24.584,0-44.511-19.017-44.511-42.467c0-23.455,19.927-42.469,44.511-42.469C202.652,44.436,222.58,63.45,222.58,86.905"/>
	<path style="clip-path:url(#SVGID_2_);fill:#0078BC;" d="M222.243,86.835c0,23.312-19.808,42.208-44.24,42.208
		s-44.24-18.896-44.24-42.208c0-23.312,19.809-42.208,44.24-42.208C202.436,44.627,222.243,63.524,222.243,86.835"/>
	<path style="clip-path:url(#SVGID_2_);fill:#0078BC;" d="M221.9,86.766c0,23.167-19.682,41.948-43.967,41.948
		c-24.283,0-43.968-18.78-43.968-41.948c0-23.168,19.685-41.948,43.968-41.948C202.221,44.817,221.9,63.597,221.9,86.766"/>
	<path style="clip-path:url(#SVGID_2_);fill:#0078BC;" d="M221.563,86.697c0,23.021-19.561,41.686-43.694,41.686
		c-24.132,0-43.695-18.663-43.695-41.686c0-23.025,19.563-41.689,43.695-41.689C202.002,45.008,221.563,63.672,221.563,86.697"/>
	<path style="clip-path:url(#SVGID_2_);fill:#0078BD;" d="M221.225,86.63c0,22.878-19.441,41.427-43.425,41.427
		s-43.424-18.549-43.424-41.427c0-22.883,19.438-41.43,43.424-41.43C201.782,45.2,221.225,63.747,221.225,86.63"/>
	<path style="clip-path:url(#SVGID_2_);fill:#0078BD;" d="M220.881,86.559c0,22.736-19.314,41.167-43.148,41.167
		c-23.832,0-43.151-18.432-43.151-41.167c0-22.737,19.319-41.169,43.151-41.169S220.881,63.822,220.881,86.559"/>
	<path style="clip-path:url(#SVGID_2_);fill:#0079BE;" d="M220.542,86.49c0,22.592-19.196,40.906-42.878,40.906
		c-23.684,0-42.878-18.313-42.878-40.906c0-22.594,19.196-40.91,42.878-40.91S220.542,63.896,220.542,86.49"/>
	<path style="clip-path:url(#SVGID_2_);fill:#0079BE;" d="M220.202,86.421c0,22.448-19.074,40.646-42.606,40.646
		c-23.531,0-42.607-18.197-42.607-40.646c0-22.45,19.076-40.651,42.607-40.651C201.128,45.77,220.202,63.971,220.202,86.421"/>
	<path style="clip-path:url(#SVGID_2_);fill:#0079BE;" d="M219.861,86.352c0,22.306-18.952,40.389-42.334,40.389
		c-23.381,0-42.334-18.083-42.334-40.389s18.954-40.389,42.334-40.389C200.909,45.963,219.861,64.046,219.861,86.352"/>
	<path style="clip-path:url(#SVGID_2_);fill:#0079BE;" d="M219.521,86.283c0,22.16-18.83,40.128-42.063,40.128
		c-23.23,0-42.061-17.968-42.061-40.128c0-22.165,18.831-40.13,42.061-40.13C200.691,46.152,219.521,64.118,219.521,86.283"/>
	<path style="clip-path:url(#SVGID_2_);fill:#0079BE;" d="M219.182,86.213c0,22.018-18.707,39.869-41.789,39.869
		c-23.08,0-41.791-17.852-41.791-39.869c0-22.021,18.71-39.871,41.791-39.871C200.475,46.342,219.182,64.193,219.182,86.213"/>
	<path style="clip-path:url(#SVGID_2_);fill:#007ABE;" d="M218.84,86.145c0,21.875-18.585,39.608-41.516,39.608
		c-22.928,0-41.515-17.733-41.515-39.608c0-21.877,18.587-39.612,41.515-39.612C200.255,46.533,218.84,64.267,218.84,86.145"/>
	<path style="clip-path:url(#SVGID_2_);fill:#007ABE;" d="M218.501,86.075c0,21.729-18.464,39.349-41.244,39.349
		c-22.778,0-41.245-17.617-41.245-39.349c0-21.733,18.464-39.353,41.245-39.353C200.037,46.723,218.501,64.342,218.501,86.075"/>
	<path style="clip-path:url(#SVGID_2_);fill:#007BBF;" d="M218.161,86.008c0,21.585-18.343,39.086-40.972,39.086
		s-40.974-17.501-40.974-39.086c0-21.591,18.345-39.093,40.974-39.093S218.161,64.417,218.161,86.008"/>
	<path style="clip-path:url(#SVGID_2_);fill:#007BBF;" d="M217.82,85.937c0,21.444-18.221,38.831-40.697,38.831
		c-22.48,0-40.701-17.387-40.701-38.831c0-21.446,18.221-38.832,40.701-38.832C199.602,47.105,217.82,64.491,217.82,85.937"/>
	<path style="clip-path:url(#SVGID_2_);fill:#007BBF;" d="M217.479,85.866c0,21.304-18.099,38.573-40.427,38.573
		c-22.327,0-40.427-17.271-40.427-38.573c0-21.302,18.1-38.571,40.427-38.571C199.38,47.295,217.479,64.564,217.479,85.866"/>
	<path style="clip-path:url(#SVGID_2_);fill:#007BC0;" d="M217.141,85.799c0,21.156-17.977,38.311-40.156,38.311
		c-22.176,0-40.151-17.153-40.151-38.311c0-21.161,17.978-38.312,40.151-38.312C199.164,47.487,217.141,64.638,217.141,85.799"/>
	<path style="clip-path:url(#SVGID_2_);fill:#007BC0;" d="M216.802,85.729c0,21.013-17.856,38.052-39.882,38.052
		c-22.029,0-39.885-17.039-39.885-38.052c0-21.016,17.855-38.052,39.885-38.052C198.943,47.677,216.802,64.713,216.802,85.729"/>
	<path style="clip-path:url(#SVGID_2_);fill:#007CC0;" d="M216.462,85.661c0,20.87-17.735,37.79-39.61,37.79
		c-21.879,0-39.612-16.92-39.612-37.79c0-20.874,17.733-37.793,39.612-37.793C198.727,47.867,216.462,64.787,216.462,85.661"/>
	<path style="clip-path:url(#SVGID_2_);fill:#007CC0;" d="M216.119,85.591c0,20.726-17.609,37.531-39.336,37.531
		s-39.338-16.806-39.338-37.531c0-20.729,17.612-37.534,39.338-37.534S216.119,64.862,216.119,85.591"/>
	<path style="clip-path:url(#SVGID_2_);fill:#007CC0;" d="M215.779,85.522c0,20.582-17.487,37.269-39.063,37.269
		c-21.577,0-39.067-16.688-39.067-37.269c0-20.586,17.49-37.273,39.067-37.273C198.292,48.25,215.779,64.937,215.779,85.522"/>
	<path style="clip-path:url(#SVGID_2_);fill:#007CC0;" d="M215.438,85.453c0,20.439-17.364,37.01-38.793,37.01
		c-21.422,0-38.792-16.568-38.792-37.01c0-20.441,17.37-37.012,38.792-37.012C198.073,48.441,215.438,65.012,215.438,85.453"/>
	<path style="clip-path:url(#SVGID_2_);fill:#007CC0;" d="M215.1,85.385c0,20.297-17.244,36.75-38.52,36.75
		s-38.521-16.453-38.521-36.75c0-20.298,17.246-36.754,38.521-36.754S215.1,65.087,215.1,85.385"/>
	<path style="clip-path:url(#SVGID_2_);fill:#007DC1;" d="M214.762,85.315c0,20.153-17.125,36.492-38.25,36.492
		c-21.127,0-38.248-16.339-38.248-36.492c0-20.156,17.121-36.492,38.248-36.492C197.637,48.823,214.762,65.159,214.762,85.315"/>
	<path style="clip-path:url(#SVGID_2_);fill:#007DC1;" d="M214.42,85.247c0,20.009-17,36.229-37.977,36.229
		c-20.973,0-37.977-16.221-37.977-36.229c0-20.013,17.004-36.233,37.977-36.233C197.42,49.013,214.42,65.234,214.42,85.247"/>
	<path style="clip-path:url(#SVGID_2_);fill:#007EC2;" d="M214.081,85.177c0,19.866-16.879,35.972-37.705,35.972
		c-20.825,0-37.704-16.104-37.704-35.972c0-19.869,16.879-35.974,37.704-35.974C197.202,49.203,214.081,65.308,214.081,85.177"/>
	<path style="clip-path:url(#SVGID_2_);fill:#007EC2;" d="M213.738,85.106c0,19.724-16.758,35.712-37.43,35.712
		c-20.676,0-37.435-15.988-37.435-35.712c0-19.723,16.759-35.713,37.435-35.713C196.98,49.393,213.738,65.383,213.738,85.106"/>
	<path style="clip-path:url(#SVGID_2_);fill:#007EC2;" d="M213.4,85.039c0,19.579-16.639,35.452-37.16,35.452
		c-20.524,0-37.16-15.873-37.16-35.452c0-19.581,16.635-35.456,37.16-35.456C196.764,49.583,213.4,65.458,213.4,85.039"/>
	<path style="clip-path:url(#SVGID_2_);fill:#007EC2;" d="M213.061,84.968c0,19.438-16.515,35.193-36.888,35.193
		s-36.888-15.756-36.888-35.193c0-19.436,16.515-35.192,36.888-35.192S213.061,65.532,213.061,84.968"/>
	<path style="clip-path:url(#SVGID_2_);fill:#007EC2;" d="M212.721,84.9c0,19.292-16.392,34.931-36.613,34.931
		c-20.224,0-36.616-15.64-36.616-34.931c0-19.293,16.393-34.935,36.616-34.935C196.329,49.965,212.721,65.607,212.721,84.9"/>
	<path style="clip-path:url(#SVGID_2_);fill:#007EC2;" d="M212.379,84.83c0,19.148-16.27,34.673-36.343,34.673
		c-20.072,0-36.342-15.522-36.342-34.673c0-19.151,16.27-34.674,36.342-34.674C196.109,50.156,212.379,65.679,212.379,84.83"/>
	<path style="clip-path:url(#SVGID_2_);fill:#007EC2;" d="M212.04,84.763c0,19.004-16.147,34.412-36.071,34.412
		c-19.921,0-36.07-15.407-36.07-34.412c0-19.009,16.149-34.417,36.07-34.417C195.893,50.346,212.04,65.754,212.04,84.763"/>
	<path style="clip-path:url(#SVGID_2_);fill:#007FC3;" d="M211.698,84.693c0,18.862-16.025,34.155-35.798,34.155
		c-19.771,0-35.796-15.293-35.796-34.155c0-18.865,16.026-34.155,35.796-34.155C195.673,50.538,211.698,65.828,211.698,84.693"/>
	<path style="clip-path:url(#SVGID_2_);fill:#007FC3;" d="M211.357,84.625c0,18.716-15.902,33.893-35.524,33.893
		c-19.619,0-35.526-15.177-35.526-33.893c0-18.721,15.907-33.896,35.526-33.896C195.455,50.728,211.357,65.903,211.357,84.625"/>
	<path style="clip-path:url(#SVGID_2_);fill:#007FC3;" d="M211.02,84.555c0,18.574-15.783,33.63-35.254,33.63
		s-35.251-15.057-35.251-33.63c0-18.576,15.781-33.637,35.251-33.637C195.234,50.918,211.02,65.979,211.02,84.555"/>
	<path style="clip-path:url(#SVGID_2_);fill:#0080C4;" d="M210.68,84.484c0,18.432-15.66,33.374-34.979,33.374
		c-19.32,0-34.982-14.94-34.982-33.374c0-18.432,15.662-33.374,34.982-33.374C195.02,51.11,210.68,66.052,210.68,84.484"/>
	<path style="clip-path:url(#SVGID_2_);fill:#0080C4;" d="M210.339,84.417c0,18.287-15.538,33.113-34.709,33.113
		c-19.17,0-34.709-14.826-34.709-33.113c0-18.291,15.54-33.116,34.709-33.116C194.801,51.3,210.339,66.125,210.339,84.417"/>
	<path style="clip-path:url(#SVGID_2_);fill:#0080C4;" d="M209.999,84.348c0,18.142-15.415,32.853-34.437,32.853
		c-19.02,0-34.437-14.711-34.437-32.853c0-18.149,15.417-32.858,34.437-32.858C194.584,51.49,209.999,66.199,209.999,84.348"/>
	<path style="clip-path:url(#SVGID_2_);fill:#0080C4;" d="M209.659,84.278c0,18-15.296,32.593-34.165,32.593
		s-34.164-14.594-34.164-32.593c0-18.004,15.295-32.598,34.164-32.598C194.363,51.681,209.659,66.274,209.659,84.278"/>
	<path style="clip-path:url(#SVGID_2_);fill:#0080C4;" d="M209.318,84.208c0,17.856-15.172,32.335-33.894,32.335
		c-18.717,0-33.892-14.479-33.892-32.335c0-17.859,15.175-32.337,33.892-32.337C194.146,51.871,209.318,66.349,209.318,84.208"/>
	<path style="clip-path:url(#SVGID_2_);fill:#0081C5;" d="M208.98,84.141c0,17.712-15.054,32.072-33.623,32.072
		c-18.566,0-33.617-14.359-33.617-32.072c0-17.717,15.051-32.077,33.617-32.077C193.928,52.064,208.98,66.424,208.98,84.141"/>
	<path style="clip-path:url(#SVGID_2_);fill:#0081C5;" d="M208.639,84.07c0,17.573-14.929,31.815-33.347,31.815
		c-18.42,0-33.349-14.242-33.349-31.815c0-17.571,14.929-31.816,33.349-31.816C193.71,52.254,208.639,66.499,208.639,84.07"/>
	<path style="clip-path:url(#SVGID_2_);fill:#0081C5;" d="M208.297,84.002c0,17.426-14.807,31.555-33.072,31.555
		c-18.27,0-33.076-14.129-33.076-31.555c0-17.43,14.806-31.559,33.076-31.559C193.49,52.444,208.297,66.573,208.297,84.002"/>
	<path style="clip-path:url(#SVGID_2_);fill:#0081C6;" d="M207.957,83.932c0,17.284-14.684,31.294-32.801,31.294
		c-18.119,0-32.803-14.011-32.803-31.294c0-17.284,14.684-31.298,32.803-31.298C193.273,52.634,207.957,66.648,207.957,83.932"/>
	<path style="clip-path:url(#SVGID_2_);fill:#0082C6;" d="M207.618,83.864c0,17.14-14.563,31.032-32.532,31.032
		c-17.965,0-32.527-13.894-32.527-31.032c0-17.146,14.562-31.038,32.527-31.038C193.057,52.826,207.618,66.72,207.618,83.864"/>
	<path style="clip-path:url(#SVGID_2_);fill:#0082C6;" d="M207.279,83.793c0,16.998-14.442,30.775-32.258,30.775
		c-17.818,0-32.259-13.777-32.259-30.775c0-16.999,14.441-30.777,32.259-30.777C192.837,53.016,207.279,66.795,207.279,83.793"/>
	<path style="clip-path:url(#SVGID_2_);fill:#0082C6;" d="M206.939,83.724c0,16.854-14.322,30.518-31.987,30.518
		c-17.666,0-31.985-13.664-31.985-30.518s14.319-30.517,31.985-30.517C192.617,53.207,206.939,66.87,206.939,83.724"/>
	<path style="clip-path:url(#SVGID_2_);fill:#0082C7;" d="M206.598,83.656c0,16.709-14.197,30.255-31.713,30.255
		c-17.518,0-31.712-13.546-31.712-30.255c0-16.712,14.195-30.258,31.712-30.258C192.398,53.398,206.598,66.944,206.598,83.656"/>
	<path style="clip-path:url(#SVGID_2_);fill:#0082C7;" d="M206.258,83.586c0,16.566-14.074,29.994-31.441,29.994
		c-17.364,0-31.44-13.428-31.44-29.994c0-16.567,14.076-29.997,31.44-29.997C192.184,53.589,206.258,67.019,206.258,83.586"/>
	<path style="clip-path:url(#SVGID_2_);fill:#0083C7;" d="M205.919,83.519c0,16.422-13.956,29.733-31.17,29.733
		S143.58,99.939,143.58,83.519c0-16.425,13.955-29.74,31.169-29.74S205.919,67.093,205.919,83.519"/>
	<path style="clip-path:url(#SVGID_2_);fill:#0083C7;" d="M205.579,83.448c0,16.278-13.834,29.476-30.897,29.476
		c-17.064,0-30.896-13.197-30.896-29.476c0-16.279,13.831-29.479,30.896-29.479C191.745,53.969,205.579,67.168,205.579,83.448"/>
	<path style="clip-path:url(#SVGID_2_);fill:#0083C7;" d="M205.238,83.38c0,16.134-13.713,29.216-30.625,29.216
		c-16.913,0-30.625-13.082-30.625-29.216c0-16.14,13.711-29.219,30.625-29.219S205.238,67.24,205.238,83.38"/>
	<path style="clip-path:url(#SVGID_2_);fill:#0083C7;" d="M204.896,83.31c0,15.993-13.586,28.956-30.352,28.956
		c-16.764,0-30.351-12.963-30.351-28.956c0-15.994,13.587-28.958,30.351-28.958C191.313,54.351,204.896,67.315,204.896,83.31"/>
	<path style="clip-path:url(#SVGID_2_);fill:#0084C8;" d="M204.557,83.242c0,15.847-13.464,28.695-30.076,28.695
		c-16.613,0-30.082-12.85-30.082-28.695c0-15.853,13.467-28.701,30.082-28.701C191.094,54.541,204.557,67.39,204.557,83.242"/>
	<path style="clip-path:url(#SVGID_2_);fill:#0084C8;" d="M204.217,83.171c0,15.705-13.342,28.438-29.807,28.438
		s-29.808-12.733-29.808-28.438c0-15.707,13.343-28.44,29.808-28.44S204.217,67.464,204.217,83.171"/>
	<path style="clip-path:url(#SVGID_2_);fill:#0084C8;" d="M203.878,83.102c0,15.563-13.224,28.179-29.536,28.179
		s-29.533-12.616-29.533-28.179c0-15.562,13.222-28.178,29.533-28.178C190.654,54.923,203.878,67.54,203.878,83.102"/>
	<path style="clip-path:url(#SVGID_2_);fill:#0084C8;" d="M203.539,83.033c0,15.417-13.102,27.918-29.266,27.918
		c-16.162,0-29.262-12.501-29.262-27.918c0-15.419,13.1-27.92,29.262-27.92C190.438,55.113,203.539,67.614,203.539,83.033"/>
	<path style="clip-path:url(#SVGID_2_);fill:#0084C9;" d="M203.195,82.966c0,15.272-12.978,27.655-28.989,27.655
		c-16.011,0-28.991-12.383-28.991-27.655c0-15.279,12.98-27.662,28.991-27.662C190.219,55.304,203.195,67.687,203.195,82.966"/>
	<path style="clip-path:url(#SVGID_2_);fill:#0084C9;" d="M202.855,82.896c0,15.129-12.854,27.397-28.717,27.397
		c-15.863,0-28.718-12.268-28.718-27.397c0-15.135,12.854-27.402,28.718-27.402C190.001,55.494,202.855,67.761,202.855,82.896"/>
	<path style="clip-path:url(#SVGID_2_);fill:#0085C9;" d="M202.518,82.826c0,14.986-12.734,27.139-28.447,27.139
		c-15.709,0-28.444-12.152-28.444-27.139c0-14.99,12.735-27.14,28.444-27.14C189.782,55.686,202.518,67.836,202.518,82.826"/>
	<path style="clip-path:url(#SVGID_2_);fill:#0085C9;" d="M202.176,82.757c0,14.843-12.611,26.88-28.171,26.88
		c-15.563,0-28.174-12.037-28.174-26.88c0-14.846,12.612-26.881,28.174-26.881C189.564,55.876,202.176,67.911,202.176,82.757"/>
	<path style="clip-path:url(#SVGID_2_);fill:#0085CA;" d="M201.838,82.688c0,14.701-12.492,26.619-27.9,26.619
		c-15.41,0-27.901-11.918-27.901-26.619c0-14.703,12.491-26.622,27.901-26.622C189.346,56.066,201.838,67.985,201.838,82.688"/>
	<path style="clip-path:url(#SVGID_2_);fill:#0085CA;" d="M201.497,82.62c0,14.557-12.369,26.358-27.631,26.358
		c-15.259,0-27.628-11.803-27.628-26.358c0-14.56,12.37-26.364,27.628-26.364C189.128,56.256,201.497,68.06,201.497,82.62"/>
	<path style="clip-path:url(#SVGID_2_);fill:#0086CA;" d="M201.157,82.549c0,14.416-12.247,26.1-27.358,26.1
		c-15.107,0-27.355-11.685-27.355-26.1s12.248-26.101,27.355-26.101C188.91,56.448,201.157,68.134,201.157,82.549"/>
	<path style="clip-path:url(#SVGID_2_);fill:#0087CB;" d="M200.816,82.482c0,14.267-12.125,25.838-27.084,25.838
		c-14.961,0-27.084-11.571-27.084-25.838c0-14.272,12.124-25.844,27.084-25.844C188.691,56.638,200.816,68.209,200.816,82.482"/>
	<path style="clip-path:url(#SVGID_2_);fill:#0087CB;" d="M200.477,82.411c0,14.126-12.002,25.581-26.812,25.581
		s-26.811-11.455-26.811-25.581c0-14.129,12.001-25.583,26.811-25.583S200.477,68.282,200.477,82.411"/>
	<path style="clip-path:url(#SVGID_2_);fill:#0087CB;" d="M200.135,82.344c0,13.982-11.881,25.317-26.537,25.317
		c-14.66,0-26.541-11.335-26.541-25.317c0-13.987,11.88-25.322,26.541-25.322C188.254,57.022,200.135,68.356,200.135,82.344"/>
	<path style="clip-path:url(#SVGID_2_);fill:#0087CB;" d="M199.797,82.273c0,13.84-11.76,25.06-26.268,25.06
		s-26.269-11.22-26.269-25.06c0-13.841,11.761-25.061,26.269-25.061S199.797,68.432,199.797,82.273"/>
	<path style="clip-path:url(#SVGID_2_);fill:#0087CB;" d="M199.456,82.204c0,13.696-11.638,24.801-25.994,24.801
		c-14.358,0-25.995-11.104-25.995-24.801c0-13.698,11.637-24.802,25.995-24.802C187.818,57.402,199.456,68.505,199.456,82.204"/>
	<path style="clip-path:url(#SVGID_2_);fill:#0087CB;" d="M199.116,82.135c0,13.555-11.517,24.54-25.724,24.54
		c-14.205,0-25.723-10.985-25.723-24.54c0-13.554,11.518-24.543,25.723-24.543C187.6,57.592,199.116,68.581,199.116,82.135"/>
	<path style="clip-path:url(#SVGID_2_);fill:#0087CB;" d="M198.777,82.065c0,13.409-11.396,24.281-25.451,24.281
		c-14.059,0-25.451-10.872-25.451-24.281c0-13.411,11.393-24.284,25.451-24.284C187.383,57.782,198.777,68.655,198.777,82.065"/>
	<path style="clip-path:url(#SVGID_2_);fill:#0088CC;" d="M198.436,81.997c0,13.266-11.27,24.019-25.178,24.019
		c-13.906,0-25.177-10.752-25.177-24.019c0-13.267,11.271-24.022,25.177-24.022C187.166,57.974,198.436,68.729,198.436,81.997"/>
	<path style="clip-path:url(#SVGID_2_);fill:#0088CC;" d="M198.096,81.927c0,13.123-11.147,23.761-24.904,23.761
		c-13.758,0-24.907-10.639-24.907-23.761c0-13.125,11.149-23.763,24.907-23.763C186.948,58.164,198.096,68.802,198.096,81.927"/>
	<path style="clip-path:url(#SVGID_2_);fill:#0089CD;" d="M197.757,81.86c0,12.977-11.026,23.5-24.635,23.5
		c-13.604,0-24.632-10.521-24.632-23.5c0-12.983,11.027-23.505,24.632-23.505C186.729,58.354,197.757,68.876,197.757,81.86"/>
	<path style="clip-path:url(#SVGID_2_);fill:#0089CD;" d="M197.417,81.789c0,12.835-10.908,23.242-24.362,23.242
		c-13.453,0-24.361-10.407-24.361-23.242c0-12.837,10.908-23.245,24.361-23.245C186.509,58.544,197.417,68.952,197.417,81.789"/>
	<path style="clip-path:url(#SVGID_2_);fill:#0089CD;" d="M197.075,81.718c0,12.694-10.782,22.983-24.091,22.983
		c-13.305,0-24.087-10.289-24.087-22.983c0-12.692,10.783-22.981,24.087-22.981C186.293,58.737,197.075,69.026,197.075,81.718"/>
	<path style="clip-path:url(#SVGID_2_);fill:#0089CD;" d="M196.734,81.651c0,12.547-10.661,22.722-23.813,22.722
		c-13.153,0-23.817-10.175-23.817-22.722c0-12.55,10.664-22.724,23.817-22.724C186.073,58.927,196.734,69.101,196.734,81.651"/>
	<path style="clip-path:url(#SVGID_2_);fill:#0089CD;" d="M196.395,81.583c0,12.403-10.539,22.459-23.543,22.459
		c-13.006,0-23.544-10.057-23.544-22.459c0-12.409,10.539-22.467,23.544-22.467C185.855,59.116,196.395,69.175,196.395,81.583"/>
	<path style="clip-path:url(#SVGID_2_);fill:#008ACE;" d="M196.055,81.513c0,12.261-10.416,22.202-23.271,22.202
		c-12.854,0-23.271-9.941-23.271-22.202c0-12.265,10.417-22.204,23.271-22.204C185.639,59.309,196.055,69.248,196.055,81.513"/>
	<path style="clip-path:url(#SVGID_2_);fill:#008ACE;" d="M195.716,81.443c0,12.118-10.297,21.94-22.998,21.94
		c-12.704,0-23.001-9.822-23.001-21.94c0-12.12,10.297-21.944,23.001-21.944C185.419,59.499,195.716,69.323,195.716,81.443"/>
	<path style="clip-path:url(#SVGID_2_);fill:#008ACE;" d="M195.375,81.375c0,11.973-10.175,21.682-22.729,21.682
		c-12.553,0-22.728-9.708-22.728-21.682c0-11.978,10.175-21.686,22.728-21.686C185.2,59.689,195.375,69.397,195.375,81.375"/>
	<path style="clip-path:url(#SVGID_2_);fill:#008ACE;" d="M195.034,81.305c0,11.831-10.052,21.421-22.455,21.421
		c-12.399,0-22.452-9.592-22.452-21.421c0-11.833,10.053-21.426,22.452-21.426C184.982,59.879,195.034,69.472,195.034,81.305"/>
	<path style="clip-path:url(#SVGID_2_);fill:#008BCF;" d="M194.693,81.237c0,11.686-9.93,21.164-22.182,21.164
		c-12.253,0-22.183-9.478-22.183-21.164c0-11.69,9.93-21.167,22.183-21.167C184.766,60.069,194.693,69.546,194.693,81.237"/>
	<path style="clip-path:url(#SVGID_2_);fill:#008BCF;" d="M194.355,81.167c0,11.543-9.811,20.901-21.91,20.901
		c-12.104,0-21.912-9.358-21.912-20.901c0-11.545,9.81-20.906,21.912-20.906C184.546,60.261,194.355,69.622,194.355,81.167"/>
	<path style="clip-path:url(#SVGID_2_);fill:#008BCF;" d="M194.018,81.099c0,11.398-9.688,20.643-21.64,20.643
		c-11.953,0-21.638-9.244-21.638-20.643c0-11.402,9.685-20.647,21.638-20.647C184.328,60.452,194.018,69.697,194.018,81.099"/>
	<path style="clip-path:url(#SVGID_2_);fill:#008CD0;" d="M193.676,81.029c0,11.258-9.564,20.382-21.365,20.382
		c-11.802,0-21.367-9.124-21.367-20.382c0-11.258,9.565-20.387,21.367-20.387C184.111,60.642,193.676,69.771,193.676,81.029"/>
	<path style="clip-path:url(#SVGID_2_);fill:#008CD0;" d="M193.335,80.96c0,11.113-9.44,20.122-21.095,20.122
		c-11.649,0-21.092-9.008-21.092-20.122c0-11.117,9.441-20.125,21.092-20.125C183.895,60.835,193.335,69.844,193.335,80.96"/>
	<path style="clip-path:url(#SVGID_2_);fill:#008CD0;" d="M192.993,80.891c0,10.971-9.319,19.863-20.819,19.863
		s-20.82-8.892-20.82-19.863c0-10.973,9.32-19.866,20.82-19.866S192.993,69.917,192.993,80.891"/>
	<path style="clip-path:url(#SVGID_2_);fill:#008CD0;" d="M192.654,80.82c0,10.829-9.199,19.604-20.549,19.604
		c-11.352,0-20.549-8.775-20.549-19.604c0-10.827,9.197-19.605,20.549-19.605C183.455,61.215,192.654,69.993,192.654,80.82"/>
	<path style="clip-path:url(#SVGID_2_);fill:#008CD0;" d="M192.313,80.752c0,10.684-9.076,19.343-20.274,19.343
		c-11.199,0-20.276-8.659-20.276-19.343c0-10.686,9.077-19.347,20.276-19.347C183.236,61.405,192.313,70.067,192.313,80.752"/>
	<path style="clip-path:url(#SVGID_2_);fill:#008CD0;" d="M191.975,80.684c0,10.539-8.955,19.083-20.004,19.083
		c-11.05,0-20.004-8.544-20.004-19.083c0-10.542,8.954-19.087,20.004-19.087C183.02,61.597,191.975,70.142,191.975,80.684"/>
	<path style="clip-path:url(#SVGID_2_);fill:#008CD0;" d="M191.633,80.615c0,10.396-8.832,18.824-19.73,18.824
		c-10.897,0-19.731-8.429-19.731-18.824c0-10.399,8.834-18.827,19.731-18.827C182.801,61.788,191.633,70.216,191.633,80.615"/>
	<path style="clip-path:url(#SVGID_2_);fill:#008DD1;" d="M191.294,80.545c0,10.253-8.711,18.564-19.46,18.564
		c-10.746,0-19.461-8.313-19.461-18.564c0-10.254,8.715-18.567,19.461-18.567C182.583,61.978,191.294,70.291,191.294,80.545"/>
	<path style="clip-path:url(#SVGID_2_);fill:#008ED2;" d="M190.954,80.477c0,10.108-8.591,18.302-19.188,18.302
		c-10.597,0-19.187-8.194-19.187-18.302c0-10.113,8.59-18.309,19.187-18.309C182.363,62.168,190.954,70.364,190.954,80.477"/>
	<path style="clip-path:url(#SVGID_2_);fill:#008ED2;" d="M190.611,80.407c0,9.965-8.465,18.043-18.91,18.043
		c-10.447,0-18.916-8.078-18.916-18.043c0-9.969,8.469-18.047,18.916-18.047C182.146,62.36,190.611,70.438,190.611,80.407"/>
	<path style="clip-path:url(#SVGID_2_);fill:#008ED2;" d="M190.275,80.338c0,9.822-8.35,17.784-18.646,17.784
		c-10.299,0-18.644-7.962-18.644-17.784c0-9.825,8.345-17.789,18.644-17.789C181.927,62.55,190.275,70.513,190.275,80.338"/>
	<path style="clip-path:url(#SVGID_2_);fill:#008ED2;" d="M189.934,80.269c0,9.678-8.225,17.526-18.371,17.526
		c-10.146,0-18.369-7.848-18.369-17.526c0-9.682,8.224-17.529,18.369-17.529C181.709,62.74,189.934,70.587,189.934,80.269"/>
	<path style="clip-path:url(#SVGID_2_);fill:#008FD2;" d="M189.596,80.2c0,9.533-8.103,17.264-18.101,17.264
		c-9.995,0-18.097-7.73-18.097-17.264c0-9.538,8.102-17.268,18.097-17.268C181.493,62.932,189.596,70.662,189.596,80.2"/>
	<path style="clip-path:url(#SVGID_2_);fill:#008FD2;" d="M189.252,80.13c0,9.391-7.979,17.006-17.825,17.006
		c-9.845,0-17.825-7.615-17.825-17.006c0-9.393,7.98-17.008,17.825-17.008S189.252,70.737,189.252,80.13"/>
	<path style="clip-path:url(#SVGID_2_);fill:#008FD2;" d="M188.912,80.06c0,9.25-7.857,16.749-17.553,16.749
		s-17.553-7.499-17.553-16.749c0-9.251,7.857-16.748,17.553-16.748S188.912,70.809,188.912,80.06"/>
	<path style="clip-path:url(#SVGID_2_);fill:#008FD3;" d="M188.57,79.993c0,9.104-7.733,16.485-17.276,16.485
		c-9.548,0-17.282-7.381-17.282-16.485c0-9.106,7.734-16.49,17.282-16.49C180.837,63.502,188.57,70.887,188.57,79.993"/>
	<path style="clip-path:url(#SVGID_2_);fill:#008FD3;" d="M188.234,79.922c0,8.961-7.615,16.229-17.012,16.229
		c-9.394,0-17.009-7.268-17.009-16.229c0-8.963,7.615-16.229,17.009-16.229C180.619,63.692,188.234,70.958,188.234,79.922"/>
	<path style="clip-path:url(#SVGID_2_);fill:#0090D4;" d="M187.893,79.854c0,8.816-7.49,15.968-16.733,15.968
		c-9.244,0-16.736-7.151-16.736-15.968c0-8.821,7.492-15.97,16.736-15.97C180.402,63.884,187.893,71.034,187.893,79.854"/>
	<path style="clip-path:url(#SVGID_2_);fill:#0090D4;" d="M187.553,79.785c0,8.673-7.369,15.707-16.463,15.707
		c-9.095,0-16.465-7.034-16.465-15.707c0-8.677,7.37-15.71,16.465-15.71C180.184,64.075,187.553,71.107,187.553,79.785"/>
	<path style="clip-path:url(#SVGID_2_);fill:#0090D4;" d="M187.213,79.716c0,8.529-7.248,15.447-16.191,15.447
		c-8.941,0-16.19-6.918-16.19-15.447c0-8.534,7.249-15.452,16.19-15.452C179.965,64.265,187.213,71.183,187.213,79.716"/>
	<path style="clip-path:url(#SVGID_2_);fill:#0090D5;" d="M186.872,79.646c0,8.389-7.124,15.188-15.921,15.188
		c-8.79,0-15.916-6.799-15.916-15.188c0-8.388,7.126-15.191,15.916-15.191C179.748,64.455,186.872,71.258,186.872,79.646"/>
	<path style="clip-path:url(#SVGID_2_);fill:#0090D5;" d="M186.532,79.578c0,8.242-7.005,14.927-15.646,14.927
		c-8.643,0-15.648-6.685-15.648-14.927c0-8.246,7.007-14.931,15.648-14.931C179.527,64.647,186.532,71.332,186.532,79.578"/>
	<path style="clip-path:url(#SVGID_2_);fill:#0091D5;" d="M186.193,79.508c0,8.098-6.883,14.668-15.375,14.668
		c-8.493,0-15.375-6.57-15.375-14.668c0-8.104,6.882-14.671,15.375-14.671C179.311,64.837,186.193,71.405,186.193,79.508"/>
	<path style="clip-path:url(#SVGID_2_);fill:#0091D5;" d="M185.854,79.438c0,7.958-6.762,14.409-15.103,14.409
		c-8.344,0-15.103-6.45-15.103-14.409s6.759-14.411,15.103-14.411C179.092,65.027,185.854,71.479,185.854,79.438"/>
	<path style="clip-path:url(#SVGID_2_);fill:#0091D5;" d="M185.512,79.37c0,7.813-6.638,14.147-14.83,14.147
		c-8.189,0-14.83-6.334-14.83-14.147c0-7.816,6.641-14.151,14.83-14.151C178.874,65.219,185.512,71.554,185.512,79.37"/>
	<path style="clip-path:url(#SVGID_2_);fill:#0091D5;" d="M185.172,79.302c0,7.669-6.518,13.888-14.559,13.888
		c-8.04,0-14.557-6.218-14.557-13.888c0-7.674,6.517-13.893,14.557-13.893C178.654,65.409,185.172,71.628,185.172,79.302"/>
	<path style="clip-path:url(#SVGID_2_);fill:#0091D5;" d="M184.831,79.232c0,7.525-6.394,13.627-14.284,13.627
		c-7.893,0-14.285-6.102-14.285-13.627c0-7.529,6.395-13.632,14.285-13.632C178.438,65.601,184.831,71.703,184.831,79.232"/>
	<path style="clip-path:url(#SVGID_2_);fill:#0093D7;" d="M184.49,79.162c0,7.384-6.271,13.37-14.012,13.37
		c-7.742,0-14.015-5.985-14.015-13.37c0-7.383,6.272-13.371,14.015-13.371S184.49,71.778,184.49,79.162"/>
	<path style="clip-path:url(#SVGID_2_);fill:#0093D7;" d="M184.15,79.094c0,7.238-6.149,13.109-13.739,13.109
		c-7.591,0-13.743-5.871-13.743-13.109c0-7.242,6.152-13.114,13.743-13.114C178.001,65.98,184.15,71.853,184.15,79.094"/>
	<path style="clip-path:url(#SVGID_2_);fill:#0093D7;" d="M183.813,79.023c0,7.097-6.03,12.85-13.47,12.85
		c-7.438,0-13.468-5.752-13.468-12.85s6.027-12.851,13.468-12.851C177.781,66.173,183.813,71.925,183.813,79.023"/>
	<path style="clip-path:url(#SVGID_2_);fill:#0093D7;" d="M183.471,78.956c0,6.951-5.906,12.588-13.195,12.588
		s-13.194-5.637-13.194-12.588c0-6.957,5.905-12.593,13.194-12.593S183.471,71.999,183.471,78.956"/>
	<path style="clip-path:url(#SVGID_2_);fill:#0093D7;" d="M183.132,78.885c0,6.81-5.784,12.329-12.924,12.329
		c-7.142,0-12.925-5.52-12.925-12.329c0-6.811,5.783-12.332,12.925-12.332C177.348,66.553,183.132,72.074,183.132,78.885"/>
	<path style="clip-path:url(#SVGID_2_);fill:#0094D8;" d="M182.791,78.818c0,6.664-5.664,12.068-12.65,12.068
		c-6.988,0-12.652-5.404-12.652-12.068c0-6.668,5.664-12.075,12.652-12.075C177.127,66.743,182.791,72.149,182.791,78.818"/>
	<path style="clip-path:url(#SVGID_2_);fill:#0094D8;" d="M182.452,78.748c0,6.521-5.542,11.81-12.378,11.81
		c-6.842,0-12.381-5.289-12.381-11.81c0-6.524,5.539-11.813,12.381-11.813C176.91,66.936,182.452,72.224,182.452,78.748"/>
	<path style="clip-path:url(#SVGID_2_);fill:#0094D8;" d="M182.111,78.68c0,6.377-5.418,11.548-12.107,11.548
		c-6.688,0-12.107-5.171-12.107-11.548c0-6.381,5.42-11.554,12.107-11.554C176.693,67.125,182.111,72.299,182.111,78.68"/>
	<path style="clip-path:url(#SVGID_2_);fill:#0094D8;" d="M181.771,78.609c0,6.235-5.297,11.291-11.836,11.291
		c-6.537,0-11.834-5.055-11.834-11.291c0-6.238,5.297-11.293,11.834-11.293C176.477,67.315,181.771,72.371,181.771,78.609"/>
	<path style="clip-path:url(#SVGID_2_);fill:#0094D8;" d="M181.43,78.54c0,6.091-5.173,11.032-11.563,11.032
		c-6.385,0-11.561-4.94-11.561-11.032s5.176-11.032,11.561-11.032C176.257,67.508,181.43,72.448,181.43,78.54"/>
	<path style="clip-path:url(#SVGID_2_);fill:#0095DA;" d="M181.09,78.472c0,5.947-5.054,10.769-11.29,10.769
		c-6.233,0-11.29-4.822-11.29-10.769c0-5.953,5.057-10.774,11.29-10.774C176.036,67.698,181.09,72.52,181.09,78.472"/>
	<path style="clip-path:url(#SVGID_2_);fill:#0095DA;" d="M180.75,78.401c0,5.804-4.93,10.511-11.02,10.511
		c-6.084,0-11.015-4.707-11.015-10.511c0-5.807,4.931-10.514,11.015-10.514C175.82,67.888,180.75,72.595,180.75,78.401"/>
	<path style="clip-path:url(#SVGID_2_);fill:#0096DA;" d="M180.411,78.334c0,5.66-4.81,10.25-10.747,10.25
		c-5.934,0-10.744-4.591-10.744-10.25c0-5.665,4.811-10.256,10.744-10.256C175.604,68.078,180.411,72.669,180.411,78.334"/>
	<path style="clip-path:url(#SVGID_2_);fill:#0096DA;" d="M180.072,78.263c0,5.517-4.689,9.991-10.473,9.991
		c-5.787,0-10.476-4.474-10.476-9.991c0-5.519,4.688-9.993,10.476-9.993C175.383,68.27,180.072,72.744,180.072,78.263"/>
	<path style="clip-path:url(#SVGID_2_);fill:#0096DB;" d="M179.729,78.196c0,5.372-4.563,9.73-10.199,9.73
		c-5.633,0-10.199-4.358-10.199-9.73c0-5.376,4.566-9.736,10.199-9.736C175.166,68.46,179.729,72.819,179.729,78.196"/>
</g>
<path style="fill:#00539B;" d="M130.5,106.491l42.799-55.474h24.027l9.165,9.166v2.378c9.808-10.224,24.508-15.607,39.315-13.008
	c22.715,3.986,37.438,23.962,32.137,47.452c-0.625,2.774-1.524,5.438-2.66,7.959l-0.036,0.113
	c-2.705,7.553-13.349,20.78-13.349,20.78l-28.358,36.938l-24.813-0.002l-11.49-11.489l13.477-17.304
	c-2.857,2.856-8.158,7.101-16.16,9.438l-2.894,19.026h-24.415l-9.275-9.396l1.25-8.174h-31.847l-4.929-4.929
	c-9.685,15.918-26.517,25.308-45.656,26.068c-30.4,1.206-55.325-18.576-55.034-47.519c0.108-10.879,3.494-22.27,11.671-34.002
	L84.344,19.1h32.369l11.947,11.89L98.871,67.732C115.913,73.24,130.523,88.843,130.5,106.491"/>
<polyline style="fill:#FFFFFF;" points="138.838,29.194 143.6,29.194 143.6,42.568 150.468,42.568 150.468,47.064 138.838,47.064 
	138.838,29.194 "/>
<polyline style="fill:#FFFFFF;" points="190.531,29.144 204.921,29.144 204.921,33.523 200.173,33.523 200.173,47.074 
	195.366,47.074 195.366,33.523 190.531,33.523 190.531,29.144 "/>
<path style="fill:#FFFFFF;" d="M239.35,38.183c0-5.875,4.213-9.421,9.594-9.421c5.16,0,9.586,3.132,9.586,9.287
	c0,5.284-3.567,9.43-9.264,9.43C243.463,47.479,239.35,44.012,239.35,38.183 M244.313,38.146c0,3.173,1.992,4.809,4.775,4.809
	c2.982,0,4.518-2.129,4.518-4.865c0-3.129-2.032-4.818-4.674-4.818C246.156,33.272,244.313,35.107,244.313,38.146z"/>
<polyline style="fill:#FFFFFF;" points="214.968,29.144 229.357,29.144 229.357,33.523 224.609,33.523 224.609,47.074 
	219.805,47.074 219.805,33.523 214.968,33.523 214.968,29.144 "/>
<path style="fill:#FFFFFF;" d="M160.885,38.183c0-5.875,4.211-9.421,9.59-9.421c5.162,0,9.592,3.132,9.592,9.287
	c0,5.284-3.569,9.43-9.267,9.43C164.996,47.479,160.885,44.012,160.885,38.183 M165.848,38.146c0,3.173,1.99,4.809,4.775,4.809
	c2.98,0,4.518-2.129,4.518-4.865c0-3.129-2.031-4.818-4.675-4.818C167.688,33.272,165.848,35.107,165.848,38.146z"/>
<path style="fill:#ED1C27;" d="M90.913,128.803c-10.5,9.988-26.284,10.448-35.254,1.016c-8.971-9.426-7.73-25.168,2.771-35.159
	c10.499-9.991,26.283-10.448,35.253-1.019C102.653,103.066,101.412,118.811,90.913,128.803"/>
<path style="fill:#D5D6D8;" d="M110.72,82.234l3.584,3.58c7.638,7.108,11.197,18.215,9.333,30.534
	c-3.841,25.352-25.232,41.909-50.859,42.15c-13.091,0.119-23.639-3.708-30.42-10.8l-4.128-4.124c0.054,0.016,0.17,0.042,0.17,0.042
	c7.003,6.284,21.405,8.999,29.594,8.487c24.471-1.521,44.608-14.711,48.445-40.061c1.751-11.585,0.982-22.594-5.705-29.725
	C110.681,82.267,110.77,82.29,110.72,82.234 M56.851,116.802c-0.79,5.229,0.348,10.024,2.89,13.804
	c-7.472-2.433-10.724-11.584-9.531-19.461c1.853-12.24,14.021-23.264,26.569-23.378c7.193-0.068,14.453,1.443,17.909,9.929
	c-3.2-2.16-7.189-3.396-11.668-3.352C70.471,94.462,58.706,104.557,56.851,116.802z M73.791,75.871l-0.074-1.89l38.861-47.774
	l1.732-0.728l4.885,4.867l-35.18,43.758C80.285,74.314,76.305,74.978,73.791,75.871z"/>
<path style="fill:#D5D6D8;" d="M228.71,122.546c-6.638-0.104-12.095-2.514-16.021-6.463l-0.137-0.128l-0.119-0.123l-4.404-4.398
	c0,0,9.527,6.107,16.559,6.037c3.12-0.027,7.246-0.677,9.441-1.486l-5.053,6.554L228.71,122.546 M261.064,64.213l3.465,3.467
	c5.936,5.413,8.693,13.824,7.129,24.566c-1.424,9.76-6.049,17.441-12.309,25.668l-29.152,37.997l-18.842-0.002l-4.879-4.875
	l0.488-0.229l18.311,0.02l28.779-37.93c5.897-8.289,10.803-15.793,12.225-25.551c1.334-9.179-0.406-16.827-4.605-22.184
	C261.365,64.768,261.4,64.582,261.064,64.213z M248.559,77.768c-2.175-1.267-4.762-1.973-7.621-1.947
	c-9.229,0.091-17.889,7.812-19.254,17.176c-0.547,3.753,0.164,7.223,1.801,10.024c-6.528-1.549-8.696-8.6-7.756-15.063
	c1.364-9.362,10.303-17.846,19.531-17.935C240.791,69.97,246.316,71.619,248.559,77.768z"/>
<path style="fill:#D5D6D8;" d="M211.334,122.951c0,0-9.732,14.138-22.876,14.324l-2.698,18.314l-15.617-0.018l-4.842-4.879
	l0.742-0.631h14.131l2.938-18.31c0,0,10.994,0.366,21.992-12.962l1.35-0.713L211.334,122.951"/>
<polyline style="fill:#D5D6D8;" points="193.706,58.628 194.43,57.911 199.305,62.79 191.219,118.484 185.018,118.484 
	193.706,58.628 "/>
<polyline style="fill:#D5D6D8;" points="146.442,118.546 146.195,118.24 175.002,79.913 176.17,79.913 174.328,93.364 
	155.473,118.546 146.442,118.546 "/>
<polyline style="fill:#D5D6D8;" points="130.264,138.031 125.367,133.139 125.897,132.768 168.523,132.768 167.667,138.049 
	130.264,138.031 "/>
<path style="fill:#FFFFFF;" d="M165.299,150.695l2.698-17.575l-42.632,0.019l5.296-15.695L176.874,57.9l17.558,0.012l-8.757,60.132
	l20.784,0.028c-10.943,14.214-21.203,14.367-22.876,14.32l-2.677,18.313L165.299,150.695 M170.26,117.991l5.303-37.508h-0.258
	l-28.308,37.541L170.26,117.991z"/>
<path style="fill:#FFFFFF;" d="M225.411,151.029l-18.937,0.005l27.137-34.767c-2.191,0.812-5.91,1.375-9.032,1.403
	c-16.253,0.158-25.722-13.313-23.356-29.533c2.822-19.384,18.563-32.05,37.416-32.231c19.243-0.19,31.022,11.681,28.141,31.458
	c-1.418,9.76-6.047,17.443-12.31,25.669L225.411,151.029 M250.355,87.79c1.361-9.363-5.063-16.938-14.297-16.847
	c-9.233,0.091-17.887,7.812-19.252,17.178c-1.365,9.361,5.063,16.936,14.295,16.846C240.336,104.876,248.991,97.154,250.355,87.79z"
	/>
<path style="fill:#FFFFFF;" d="M88.642,25.481l25.678-0.017L74.732,74.688c2.983-1.063,8.039-1.799,12.279-1.837
	c22.092-0.208,34.957,17.41,31.746,38.62c-3.837,25.351-25.231,41.909-50.859,42.147c-26.156,0.245-42.163-15.272-38.246-41.142
	c1.93-12.761,8.216-22.808,16.73-33.563L88.642,25.481 M51.975,111.922c-1.854,12.244,6.884,22.148,19.432,22.031
	c12.547-0.114,24.312-10.214,26.168-22.456c1.853-12.245-6.884-22.15-19.431-22.034C65.592,89.58,53.828,99.682,51.975,111.922z"/>
</svg>
